<svg xmlns="http://www.w3.org/2000/svg" width="86" height="16" viewBox="0 0 86 16">
    <g fill="none" fill-rule="evenodd">
        <path d="M0 .513v14.933h14.058V.513H0z"/>
        <path fill="#66697D" d="M7.75 15.446c-1.133 0-2.18-.189-3.144-.564-.965-.376-1.783-.892-2.455-1.55A7.065 7.065 0 0 1 .57 10.97 7.63 7.63 0 0 1 0 8.015v-.04C0 6.96.195 5.995.587 5.08a7.437 7.437 0 0 1 1.6-2.382c.676-.67 1.496-1.203 2.46-1.595a8.084 8.084 0 0 1 3.082-.59c1.276 0 2.356.161 3.241.485.885.322 1.736.817 2.551 1.488l.001.002-2.037 2.416c-.624-.504-1.223-.873-1.795-1.108-.574-.235-1.262-.352-2.064-.352-1.173 0-2.173.44-3 1.32-.827.879-1.24 1.935-1.24 3.17v.04c0 1.324.418 2.418 1.256 3.283.836.866 1.907 1.299 3.21 1.299 1.207 0 2.225-.289 3.055-.865.001 0 .002 0 .002-.003V9.625H7.647V6.887h6.41V13.15c-1.839 1.53-3.941 2.295-6.308 2.295"/>
        <path d="M16.28 15.446h11.085V3.936H16.281v11.51z"/>
        <path fill="#66697D" d="M19.423 8.8h4.82c.002 0 .003 0 .003-.003-.096-.716-.352-1.287-.767-1.709-.414-.422-.951-.634-1.61-.634-.652 0-1.19.21-1.616.63-.424.419-.702.99-.832 1.713-.001.002 0 .004.002.004m2.754 6.645c-1.707 0-3.118-.533-4.229-1.6-1.111-1.068-1.667-2.441-1.667-4.12v-.04c0-1.219.319-2.32.956-3.303.228-.352.501-.675.81-.96 1.072-.991 2.346-1.486 3.822-1.486.913 0 1.728.164 2.444.494.717.329 1.294.775 1.73 1.339.435.563.764 1.2.987 1.907.223.709.335 1.462.335 2.26 0 .162-.014.438-.041.827H19.46c.158.705.478 1.242.962 1.611s1.086.553 1.806.553c.535 0 1.014-.088 1.436-.267.422-.177.855-.467 1.302-.87l1.83 1.589v.003c-1.132 1.375-2.671 2.063-4.62 2.063M33.56 15.376c-1.056 0-1.87-.251-2.44-.751-.569-.5-.853-1.354-.853-2.563V6.827h-1.349v-2.69h1.35V1.32h3.21v2.819h2.655v2.69h-2.655v4.721c0 .363.082.631.247.805.164.176.425.262.781.262a3.27 3.27 0 0 0 1.576-.387c.004-.002.01.001.01.005V14.742c-.735.422-1.579.634-2.532.634M39.035 15.194V6.827h-1.338V4.249h1.338v-.705c0-1.194.302-2.088.906-2.679C40.53.29 41.392 0 42.523 0c.87 0 1.632.1 2.284.302l.001.001V2.9a4.436 4.436 0 0 0-1.46-.262c-.77 0-1.154.4-1.154 1.199v.433h2.594v2.557h-2.552v8.367h-3.201zM51.91 12.738c.885 0 1.595-.291 2.13-.872.535-.58.802-1.294.802-2.139v-.041c0-.838-.279-1.556-.838-2.155-.559-.596-1.27-.895-2.135-.895-.886 0-1.596.29-2.13.87-.537.58-.804 1.295-.804 2.14v.04c0 .84.28 1.558.838 2.156.56.596 1.272.896 2.136.896m-.04 2.707c-1.146 0-2.186-.254-3.12-.764-.932-.511-1.661-1.202-2.186-2.075a5.483 5.483 0 0 1-.788-2.879v-.041c0-.785.157-1.53.469-2.236A5.744 5.744 0 0 1 47.52 5.62a5.927 5.927 0 0 1 1.95-1.228 6.548 6.548 0 0 1 2.44-.453c1.145 0 2.185.253 3.118.76a5.63 5.63 0 0 1 2.186 2.069c.526.872.788 1.832.788 2.88v.039c0 1.048-.264 2.01-.792 2.89-.529.88-1.263 1.578-2.203 2.095-.94.516-1.986.774-3.138.774M60.307 15.194V4.138h3.211v2.225c.713-1.69 1.913-2.5 3.6-2.426l.002.002v3.27h-.175c-1.091 0-1.935.326-2.532.977-.597.65-.895 1.625-.895 2.92v4.088h-3.211z"/>
        <path d="M86.365 15.194V3.937H69.117v11.257h17.248z"/>
        <path fill="#66697D" d="M69.117 15.194V4.138h3.14V5.71c.43-.551.897-.984 1.403-1.3.507-.316 1.122-.473 1.847-.473.718 0 1.344.15 1.877.453.534.303.944.735 1.233 1.298.992-1.168 2.204-1.751 3.632-1.751 1.176 0 2.091.348 2.749 1.042.657.695.986 1.7.986 3.016v7.2h-3.14V9.031c0-.738-.158-1.299-.473-1.682-.315-.382-.768-.574-1.359-.574-.596 0-1.062.193-1.394.58-.332.385-.498.944-.498 1.676v6.162h-3.14V9.032c0-.738-.158-1.299-.473-1.682-.315-.382-.768-.574-1.359-.574-.596 0-1.06.193-1.393.58-.332.385-.498.944-.498 1.676v6.162h-3.14z"/>
    </g>
</svg>
