<svg xmlns="http://www.w3.org/2000/svg" width="86" height="25" viewBox="0 0 86 25">
    <g fill="#FF2B06" fill-rule="nonzero">
        <path d="M7.186 6.448H.2V.111h21.649v6.337h-6.985v18.387H7.186zM23.04.111h21.016v6.337H30.722V9.53h13.334v5.889H30.722v3.08H44.06v6.337H23.041zM45.348.111h12.606c8.31 0 11.246 6.095 11.246 12.326 0 7.585-4.05 12.398-12.746 12.398H45.348V.11zm7.682 18.387h3.004c4.785 0 5.485-3.844 5.485-6.167 0-1.555-.492-5.883-6.045-5.883H53.03v12.05zM80.238 15.307l-2.344-3.853-2.285 3.853h-5.628l5.343-7.79L70.18.063h5.63l2.085 3.684L80.04.064h5.629l-5.144 7.452 5.343 7.791h-5.63z"/>
    </g>
</svg>
