<svg xmlns="http://www.w3.org/2000/svg" width="175" height="41" viewBox="0 0 175 41">
    <g fill="none" fill-rule="evenodd">
        <path fill="#DA552F" d="M40.936 20.5c0 11.322-9.164 20.5-20.468 20.5S0 31.822 0 20.5 9.164 0 20.468 0s20.468 9.178 20.468 20.5"/>
        <path fill="#FFF" d="M23.197 20.5h-5.8v-6.15h5.8a3.073 3.073 0 0 1 3.07 3.075 3.073 3.073 0 0 1-3.07 3.075m0-10.25h-9.893v20.5h4.094V24.6h5.799c3.956 0 7.164-3.212 7.164-7.175 0-3.963-3.208-7.175-7.164-7.175"/>
        <path fill="#DA552F" d="M62.438 17.994c0-1.127-.865-1.812-1.99-1.812h-3.013v3.604h3.014c1.124 0 1.99-.685 1.99-1.792zm-7.857 9.34V13.666h6.269c2.914 0 4.501 1.972 4.501 4.327 0 2.335-1.607 4.307-4.501 4.307h-3.415v5.032H54.58zM67.087 27.333V17.37h2.551v1.308c.704-.845 1.89-1.55 3.096-1.55v2.496a3.276 3.276 0 0 0-.703-.06c-.845 0-1.97.483-2.393 1.107v6.662h-2.55zM81.318 22.22c0-1.509-.885-2.817-2.492-2.817-1.589 0-2.472 1.308-2.472 2.818 0 1.53.883 2.838 2.472 2.838 1.607 0 2.492-1.308 2.492-2.838m-7.617 0c0-2.758 1.93-5.092 5.125-5.092 3.215 0 5.145 2.334 5.145 5.092 0 2.757-1.93 5.112-5.145 5.112-3.196 0-5.125-2.355-5.125-5.112M92.558 23.951V20.51c-.422-.644-1.346-1.107-2.191-1.107-1.466 0-2.47 1.147-2.47 2.818 0 1.69 1.004 2.837 2.47 2.837.845 0 1.769-.462 2.191-1.107zm0 3.382v-1.49c-.764.967-1.808 1.49-2.994 1.49-2.432 0-4.3-1.852-4.3-5.112 0-3.16 1.829-5.092 4.3-5.092a3.68 3.68 0 0 1 2.994 1.489v-4.951h2.572v13.666h-2.572zM104.22 27.333v-1.469a4.61 4.61 0 0 1-3.415 1.47c-2.13 0-3.135-1.168-3.135-3.06V17.37h2.551v5.897c0 1.35.704 1.792 1.788 1.792.985 0 1.77-.544 2.211-1.107V17.37h2.553v9.963h-2.553zM108.689 22.22c0-2.978 2.17-5.091 5.144-5.091 1.99 0 3.196.865 3.84 1.751l-1.67 1.57c-.461-.685-1.165-1.047-2.048-1.047-1.548 0-2.633 1.127-2.633 2.818 0 1.69 1.085 2.838 2.633 2.838.883 0 1.587-.403 2.048-1.067l1.67 1.57c-.644.886-1.85 1.771-3.84 1.771-2.974 0-5.144-2.113-5.144-5.112M119.867 24.656v-5.052h-1.607V17.37h1.607v-2.657h2.552v2.657h1.969v2.234h-1.969v4.368c0 .624.32 1.087.884 1.087.381 0 .744-.141.883-.302l.544 1.952c-.381.342-1.066.624-2.13.624-1.79 0-2.733-.926-2.733-2.677M140.735 27.333v-5.897h-6.33v5.897h-2.853V13.667h2.852v5.273h6.331v-5.273h2.874v13.666zM152.74 27.333v-1.469a4.61 4.61 0 0 1-3.414 1.47c-2.13 0-3.135-1.168-3.135-3.06V17.37h2.55v5.897c0 1.35.704 1.792 1.79 1.792.984 0 1.768-.544 2.21-1.107V17.37h2.553v9.963h-2.553zM164.382 27.333v-6.118c0-1.35-.702-1.812-1.789-1.812-1.005 0-1.767.563-2.21 1.127v6.803h-2.552V17.37h2.552v1.248c.623-.725 1.829-1.49 3.397-1.49 2.15 0 3.174 1.208 3.174 3.1v7.105h-2.572zM169.996 24.656v-5.052h-1.607V17.37h1.607v-2.657h2.553v2.657h1.968v2.234h-1.968v4.368c0 .624.32 1.087.883 1.087.381 0 .745-.141.885-.302l.542 1.952c-.381.342-1.065.624-2.13.624-1.79 0-2.733-.926-2.733-2.677"/>
    </g>
</svg>
