<svg xmlns="http://www.w3.org/2000/svg" width="102" height="40" viewBox="0 0 102 40">
    <g fill="none" fill-rule="nonzero">
        <g fill="#231F20">
            <path d="M53.35 37.392c-4.349 0-6.463-2.033-6.463-6.216V17.751h-3.585v-4.526h3.585V7.268l5.755-.802v6.759h6.128l-.373 4.526h-5.755v12.64c0 1.48.766 2.23 2.28 2.23.8 0 1.825-.163 2.897-.46l.654 4.342c-1.325.534-3.694.89-5.123.89M68.832 22.767c2.37 0 3.037-.666 3.037-2.296v-1.519c0-1.555-.667-1.888-3-1.888-1.63 0-3.26.185-5.111.518l-.556-4.184c2.111-.445 3.963-.667 6.148-.667 6.186 0 7.852 1.852 7.852 5.555v1.74c0 2.185-.74 3.852-2.48 4.926 2.073.926 2.925 2.222 2.925 4.555v1.89c0 3.628-1.704 5.998-8.445 5.998-2.26 0-4.148-.185-6.074-.815l.555-4.11c1.815.333 3.186.481 5.334.481 2.593 0 3.296-.518 3.296-1.962v-1.704c0-1.37-.851-1.963-2.703-1.963h-4.89v-4.555h4.112M101.776 36.946h-5.753V20.37c0-1.388-.647-2.034-2.035-2.034-1.421 0-4.009.834-6.292 2.027l-.063.033v16.55h-5.754V13.27h4.36l.564 1.928.04.136.126-.063c3.079-1.514 6.818-2.492 9.524-2.492 3.555 0 5.283 2.274 5.283 6.952v17.215"/>
        </g>
        <path fill="#FFF" d="M39.153 39.263H12.11C5.452 39.263.035 33.843.035 27.18V12.22C.035 5.556 5.452.136 12.11.136h14.954c6.66 0 12.077 5.42 12.077 12.082l.01 24.69v2.354"/>
        <g fill="#ED1C24">
            <path d="M2.348 12.18c0-5.38 4.362-9.742 9.743-9.742h14.985a9.78 9.78 0 0 1 2.146.237c-.34 7.621-5.77 11.76-8.217 12.615-5.696-2.537-12.78-3.557-18.657-2.692v-.417M19.67 36.906H12.09c-5.381 0-9.743-4.362-9.743-9.743V16.727c5.054.684 10.108 2.923 12.98 5.737-.342 4.888.36 8.692 4.342 14.442M32.665 4.199a9.73 9.73 0 0 1 4.155 7.982l.01 24.725H25.102c-1.983-5.591-1.608-9.878-1.261-12.782a5.062 5.062 0 0 0 1.524-.8c5.42-3.813 7.461-11.614 7.3-19.125"/>
        </g>
    </g>
</svg>
