<?xml version="1.0" encoding="UTF-8"?>
<svg width="46px" height="46px" viewBox="0 0 46 46" version="1.1" xmlns="http://www.w3.org/2000/svg" xmlns:xlink="http://www.w3.org/1999/xlink">
    <!-- Generator: Sketch 52.3 (67297) - http://www.bohemiancoding.com/sketch -->
    <title>Slack_Mark</title>
    <desc>Created with Sketch.</desc>
    <g id="Index" stroke="none" stroke-width="1" fill="none" fill-rule="evenodd">
        <g id="index" transform="translate(-1048.000000, -1573.000000)">
            <g id="Slack_Mark" transform="translate(1048.000000, 1573.000000)">
                <path d="M29.6569106,3.02926829 C28.9463415,0.897560976 26.6650407,-0.261788618 24.5333333,0.411382114 C22.401626,1.12195122 21.2422764,3.40325203 21.9154472,5.53495935 L32.4243902,37.8471545 C33.1349593,39.8292683 35.304065,40.9512195 37.3609756,40.3528455 C39.5300813,39.7170732 40.8390244,37.4357724 40.1284553,35.3414634 C40.1284553,35.2666667 29.6569106,3.02926829 29.6569106,3.02926829 Z" id="Path" fill="#ECB32D"></path>
                <path d="M13.3886179,8.30243902 C12.6780488,6.17073171 10.396748,5.01138211 8.26504065,5.68455285 C6.13333333,6.39512195 4.97398374,8.67642276 5.64715447,10.8081301 L16.1560976,43.1203252 C16.8666667,45.102439 19.0357724,46.2243902 21.0926829,45.6260163 C23.2617886,44.9902439 24.5707317,42.7089431 23.8601626,40.6146341 C23.8601626,40.5398374 13.3886179,8.30243902 13.3886179,8.30243902 Z" id="Path" fill="#63C1A0"></path>
                <path d="M42.895935,29.7691057 C45.0276423,29.0585366 46.1869919,26.7772358 45.5138211,24.6455285 C44.803252,22.5138211 42.5219512,21.3544715 40.3902439,22.0276423 L8.04065041,32.5739837 C6.05853659,33.2845528 4.93658537,35.4536585 5.53495935,37.5105691 C6.17073171,39.6796748 8.45203252,40.9886179 10.5463415,40.2780488 C10.6211382,40.2780488 42.895935,29.7691057 42.895935,29.7691057 Z" id="Path" fill="#E01A59"></path>
                <path d="M14.7723577,38.9317073 C16.8666667,38.2585366 19.596748,37.3609756 22.5138211,36.4260163 C21.8406504,34.3317073 20.9430894,31.601626 20.0081301,28.6845528 L12.2666667,31.1902439 L14.7723577,38.9317073 Z" id="Path" fill="#331433"></path>
                <path d="M31.0780488,33.6211382 C33.995122,32.6861789 36.7252033,31.7886179 38.8195122,31.1154472 C38.1463415,29.0211382 37.2487805,26.2910569 36.3138211,23.3739837 L28.5723577,25.8796748 L31.0780488,33.6211382 Z" id="Path" fill="#D62027"></path>
                <path d="M37.5853659,13.500813 C39.7170732,12.7902439 40.8764228,10.5089431 40.203252,8.37723577 C39.4926829,6.24552846 37.2113821,5.08617886 35.0796748,5.75934959 L2.76747967,16.2682927 C0.785365854,16.9788618 -0.336585366,19.1479675 0.261788618,21.204878 C0.897560976,23.3739837 3.17886179,24.6829268 5.27317073,23.9723577 C5.34796748,23.9723577 37.5853659,13.500813 37.5853659,13.500813 Z" id="Path" fill="#89D3DF"></path>
                <path d="M9.49918699,22.6260163 C11.5934959,21.9528455 14.3235772,21.0552846 17.2406504,20.1203252 C16.3056911,17.203252 15.4081301,14.4731707 14.7349593,12.3788618 L6.99349593,14.8845528 L9.49918699,22.6260163 Z" id="Path" fill="#258B74"></path>
                <path d="M25.7674797,17.3528455 C28.6845528,16.4178862 31.4146341,15.5203252 33.5089431,14.8471545 C32.5739837,11.9300813 31.6764228,9.2 31.003252,7.10569106 L23.2617886,9.61138211 L25.7674797,17.3528455 Z" id="Path" fill="#819C3C"></path>
            </g>
        </g>
    </g>
</svg>