<svg xmlns="http://www.w3.org/2000/svg" xmlns:xlink="http://www.w3.org/1999/xlink" width="130" height="130" viewBox="0 0 130 130">
    <defs>
        <linearGradient id="b" x1="50%" x2="50%" y1="0%" y2="100%">
            <stop offset="0%" stop-color="#F2F3F7"/>
            <stop offset="100%" stop-color="#E9ECF3"/>
        </linearGradient>
        <rect id="a" width="130" height="130" rx="3"/>
        <linearGradient id="e" x1="0%" y1="50%" y2="50%">
            <stop offset="0%" stop-color="#615CAE"/>
            <stop offset="100%" stop-color="#506FBD"/>
        </linearGradient>
        <path id="d" d="M0 0h130v46H0z"/>
    </defs>
    <g fill="none" fill-rule="evenodd">
        <mask id="c" fill="#fff">
            <use xlink:href="#a"/>
        </mask>
        <use fill="url(#b)" xlink:href="#a"/>
        <use fill="#F2F3F5" xlink:href="#a"/>
        <g mask="url(#c)">
            <mask id="f" fill="#fff">
                <use xlink:href="#d"/>
            </mask>
            <use fill="url(#e)" xlink:href="#d"/>
            <rect width="43" height="6" x="10" y="9" fill="#FFF" fill-opacity=".105" mask="url(#f)" rx="2"/>
        </g>
        <rect width="110" height="96" x="10" y="24" fill="#FFF" mask="url(#c)" rx="3"/>
        <rect width="17" height="6" x="18" y="32" fill="#D2D8E7" mask="url(#c)" rx="2"/>
        <rect width="34" height="6" x="18" y="49" fill="#EEF0F5" mask="url(#c)" rx="2"/>
        <rect width="22" height="6" x="58" y="49" fill="#EEF0F5" mask="url(#c)" rx="2"/>
        <rect width="22" height="6" x="86" y="49" fill="#EEF0F5" mask="url(#c)" rx="2"/>
        <rect width="34" height="6" x="18" y="63" fill="#EEF0F5" mask="url(#c)" rx="2"/>
        <rect width="34" height="6" x="18" y="91" fill="#EEF0F5" mask="url(#c)" rx="2"/>
        <rect width="22" height="6" x="58" y="63" fill="#EEF0F5" mask="url(#c)" rx="2"/>
        <rect width="22" height="6" x="58" y="91" fill="#EEF0F5" mask="url(#c)" rx="2"/>
        <rect width="22" height="6" x="86" y="63" fill="#EEF0F5" mask="url(#c)" rx="2"/>
        <rect width="22" height="6" x="86" y="91" fill="#EEF0F5" mask="url(#c)" rx="2"/>
        <rect width="34" height="6" x="18" y="77" fill="#EEF0F5" mask="url(#c)" rx="2"/>
        <rect width="22" height="6" x="58" y="77" fill="#EEF0F5" mask="url(#c)" rx="2"/>
        <rect width="22" height="6" x="86" y="77" fill="#EEF0F5" mask="url(#c)" rx="2"/>
    </g>
</svg>
