<?xml version="1.0" encoding="UTF-8"?>
<svg width="43px" height="46px" viewBox="0 0 43 46" version="1.1" xmlns="http://www.w3.org/2000/svg" xmlns:xlink="http://www.w3.org/1999/xlink">
    <!-- Generator: Sketch 52.3 (67297) - http://www.bohemiancoding.com/sketch -->
    <title>mailchimp-freddie-icon-wink</title>
    <desc>Created with Sketch.</desc>
    <g id="Index" stroke="none" stroke-width="1" fill="none" fill-rule="evenodd">
        <g id="index" transform="translate(-830.000000, -1544.000000)">
            <g id="Group-12" transform="translate(248.000000, 1494.000000)">
                <g id="Group-19-Copy-3">
                    <g id="Group-7" transform="translate(472.000000, 0.000000)">
                        <g id="mailchimp-freddie-icon-wink" transform="translate(110.000000, 50.000000)">
                            <g id="Group" fill="#664F44" fill-rule="nonzero">
                                <path d="M42.7969957,31.2064 C42.7785408,31.1328 42.7600858,31.0592 42.7600858,30.9856 C42.7416309,30.9488 42.7416309,30.8936 42.723176,30.8568 C42.6862661,30.7648 42.6493562,30.6544 42.6124464,30.5624 C42.5201717,30.3784 42.3909871,30.1944 42.2248927,30.0472 C42.0587983,29.9 41.8742489,29.7896 41.6896996,29.7344 C41.5051502,29.6608 41.3206009,29.624 41.1545064,29.624 L41.0253219,29.624 C41.1175966,28.7224 40.7854077,28.0784 40.5824034,27.784 C40.6008584,27.7656 40.6008584,27.7472 40.6193133,27.7472 C40.8038627,27.508 40.9699571,27.2872 41.0991416,27.0664 L41.1175966,27.0296 C41.2283262,26.8272 41.283691,26.6432 41.3206009,26.4592 C41.3390558,26.312 41.3575107,26.1648 41.3575107,26.0544 L41.3575107,25.944 L41.3575107,25.8704 C41.3575107,25.8152 41.3390558,25.76 41.3390558,25.7048 C41.3021459,25.4288 41.1914163,25.0792 40.9699571,24.7296 C40.8592275,24.5456 40.711588,24.3616 40.5270386,24.2144 C40.3424893,24.0488 40.12103,23.92 39.8626609,23.8096 C39.844206,23.8096 39.8257511,23.7912 39.8072961,23.7912 C39.2351931,23.1288 38.6077253,22.6504 38.0540773,22.2824 C37.7772532,22.0984 37.5004292,21.9512 37.27897,21.8224 C37.0575107,21.6936 36.8729614,21.6016 36.7622318,21.5464 C36.5223176,21.4176 36.3562232,21.344 36.2639485,21.3072 C36.0793991,21.2152 35.9317597,21.16 35.839485,21.1048 C35.7656652,21.068 35.7287554,21.0312 35.7287554,21.0312 C35.7287554,21.0312 35.7103004,21.0128 35.7103004,20.976 C35.6918455,20.9208 35.6733906,20.8472 35.6549356,20.7368 C35.6180258,20.5528 35.5995708,20.2768 35.5811159,19.9088 C35.544206,19.32 35.5072961,18.5288 35.4334764,17.4432 C35.4150215,17.0936 35.3781116,16.7808 35.3227468,16.468 C35.248927,15.9896 35.1197425,15.548 34.972103,15.1616 C34.9351931,15.0696 34.8982833,14.9776 34.8613734,14.904 C34.8244635,14.8488 34.8060086,14.7936 34.7875536,14.7568 C34.7506438,14.7016 34.7321888,14.6464 34.695279,14.5912 C34.676824,14.5728 34.6583691,14.536 34.6399142,14.4808 C34.5845494,14.4072 34.5291845,14.3152 34.4738197,14.2232 L34.4553648,14.2048 L34.4184549,14.168 L34.4,14.1312 C34.2892704,13.984 34.1600858,13.8552 34.0309013,13.7264 C33.9386266,13.4872 33.8094421,13.1376 33.5879828,12.7328 C33.4034335,12.3832 33.1635193,11.9968 32.8497854,11.6288 C32.7390558,11.5 32.6098712,11.3712 32.4806867,11.2608 L32.5175966,11.224 C32.5729614,11.1688 33.6802575,9.66 34.4738197,7.7832 C35.9502146,4.2872 35.0828326,2.3736 34.0862661,1.38 L34.0493562,1.3432 L34.0124464,1.3248 C33.0527897,0.4048 31.8532189,0 30.4506438,0 C27.5347639,0 24.4527897,1.8216 23.6407725,2.3184 L21.8690987,0.8096 C21.7214592,0.6808 21.5369099,0.552 21.3708155,0.46 C21.1862661,0.368 21.0017167,0.276 20.7987124,0.2208 C20.4111588,0.092 19.9866953,0.0368 19.5437768,0.0368 C18.6579399,0.0368 17.6982833,0.2576 16.6648069,0.6624 C15.1330472,1.2696 13.4536481,2.2816 11.7188841,3.6248 C9.98412017,4.968 8.23090129,6.6608 6.55150215,8.6112 C4.50300429,11.0032 2.87896996,13.4504 1.75321888,15.732 C1.19957082,16.8728 0.756652361,17.9584 0.461373391,18.9888 C0.166094421,20.0008 0,20.9576 0,21.8224 C0,22.448 0.0922746781,23.0368 0.276824034,23.552 C0.369098712,23.7728 0.461373391,23.9936 0.59055794,24.196 C0.756652361,24.4536 0.959656652,24.6928 1.18111588,24.8952 L3.02660944,26.3856 L3.22961373,26.5512 L3.22961373,26.5696 C3.2111588,26.6064 3.19270386,26.6432 3.19270386,26.68 L3.13733906,26.8456 C3.11888412,26.8824 3.11888412,26.9192 3.10042918,26.956 L3.04506438,27.1216 C3.02660944,27.1584 3.02660944,27.1952 3.00815451,27.232 L2.9527897,27.3976 C2.93433476,27.4344 2.93433476,27.4712 2.91587983,27.508 C2.89742489,27.5632 2.89742489,27.6184 2.87896996,27.692 C2.87896996,27.7288 2.86051502,27.7656 2.86051502,27.8024 C2.84206009,27.8576 2.84206009,27.9312 2.82360515,27.9864 L2.82360515,28.0416 C2.82360515,28.06 2.82360515,28.0784 2.80515021,28.1152 C2.80515021,28.1704 2.78669528,28.244 2.78669528,28.2992 C2.78669528,28.336 2.76824034,28.3728 2.76824034,28.4096 L2.76824034,29.1824 C2.76824034,29.256 2.76824034,29.348 2.78669528,29.4216 L2.78669528,29.624 C2.78669528,29.6792 2.80515021,29.7344 2.80515021,29.7896 C2.80515021,29.8264 2.80515021,29.8632 2.82360515,29.9 L2.82360515,29.9552 C2.82360515,29.992 2.84206009,30.0288 2.84206009,30.0656 C2.84206009,30.1024 2.86051502,30.1392 2.86051502,30.176 C2.86051502,30.2128 2.87896996,30.2312 2.87896996,30.268 C2.87896996,30.2864 2.89742489,30.3048 2.89742489,30.3232 C2.89742489,30.36 2.91587983,30.3968 2.91587983,30.4336 C2.91587983,30.4704 2.93433476,30.5256 2.9527897,30.5808 C2.9527897,30.5992 2.9527897,30.6176 2.97124464,30.636 C2.98969957,30.6728 2.98969957,30.728 3.00815451,30.7648 C3.02660944,30.8016 3.02660944,30.8384 3.04506438,30.8936 C3.04506438,30.912 3.06351931,30.9304 3.06351931,30.9488 C3.06351931,30.9672 3.08197425,31.004 3.08197425,31.0224 L3.10042918,31.0592 C3.11888412,31.096 3.11888412,31.1328 3.15579399,31.188 C3.15579399,31.2064 3.17424893,31.2064 3.17424893,31.2248 C3.19270386,31.2616 3.19270386,31.2984 3.2111588,31.3168 L3.22961373,31.3536 C3.22961373,31.372 3.24806867,31.372 3.24806867,31.3904 L3.26652361,31.4272 L3.28497854,31.464 L3.30343348,31.4824 C3.30343348,31.5008 3.32188841,31.5008 3.32188841,31.5192 L3.34034335,31.556 C3.35879828,31.5928 3.35879828,31.6112 3.37725322,31.6296 C3.39570815,31.6664 3.41416309,31.7032 3.43261803,31.7584 L3.43261803,31.7768 C3.43261803,31.7952 3.45107296,31.7952 3.45107296,31.8136 C3.4695279,31.8688 3.48798283,31.9056 3.50643777,31.924 C3.5248927,31.9608 3.54334764,31.9976 3.58025751,32.0528 L3.59871245,32.0712 C3.61716738,32.108 3.63562232,32.1264 3.65407725,32.1632 L3.67253219,32.1816 C3.67253219,32.2 3.69098712,32.2184 3.70944206,32.2368 C3.727897,32.2552 3.727897,32.2736 3.74635193,32.3104 L3.76480687,32.3288 C3.7832618,32.3472 3.80171674,32.384 3.80171674,32.4024 C3.82017167,32.4208 3.82017167,32.4392 3.83862661,32.4576 C3.85708155,32.4944 3.87553648,32.5312 3.91244635,32.568 L3.93090129,32.5864 C3.94935622,32.6048 3.94935622,32.6232 3.96781116,32.6416 C3.98626609,32.66 4.00472103,32.6784 4.00472103,32.6968 C4.02317597,32.7152 4.0416309,32.752 4.07854077,32.8072 L4.09699571,32.8256 C4.11545064,32.844 4.11545064,32.8624 4.13390558,32.8808 C4.15236052,32.8992 4.17081545,32.936 4.18927039,32.9544 C4.20772532,32.9728 4.22618026,33.0096 4.26309013,33.0464 L4.28154506,33.0648 L4.33690987,33.12 C4.35536481,33.1384 4.37381974,33.1752 4.39227468,33.1936 C4.41072961,33.212 4.42918455,33.2488 4.46609442,33.2856 L4.52145923,33.3408 L4.59527897,33.4144 L4.66909871,33.488 L4.72446352,33.5432 L4.79828326,33.6168 L4.85364807,33.672 L4.872103,33.6904 C4.90901288,33.7272 4.94592275,33.7456 4.98283262,33.7824 L5.01974249,33.8192 L5.0751073,33.8744 C5.11201717,33.9112 5.14892704,33.948 5.18583691,33.9664 C5.20429185,33.9848 5.22274678,33.9848 5.24120172,34.0032 C5.24120172,34.0032 5.25965665,34.0216 5.29656652,34.04 L5.31502146,34.0584 C5.37038627,34.0952 5.40729614,34.132 5.46266094,34.1688 L5.48111588,34.1688 C5.49957082,34.1688 5.51802575,34.1872 5.53648069,34.2056 C5.59184549,34.2424 5.66566524,34.2976 5.72103004,34.3344 L5.75793991,34.3528 L5.77639485,34.3712 L5.81330472,34.3896 C5.86866953,34.4264 5.92403433,34.4448 5.96094421,34.4816 L5.97939914,34.4816 C5.99785408,34.5 6.01630901,34.5 6.01630901,34.5 L6.03476395,34.5 C6.05321888,34.5 6.07167382,34.5184 6.07167382,34.5184 C6.10858369,34.5368 6.1639485,34.5736 6.20085837,34.592 L6.23776824,34.6104 L6.27467811,34.6288 L6.29313305,34.6472 C6.33004292,34.6656 6.38540773,34.684 6.4223176,34.7208 C6.44077253,34.7392 6.45922747,34.7392 6.49613734,34.7576 L6.53304721,34.776 L6.55150215,34.7944 L6.56995708,34.7944 C6.64377682,34.8312 6.69914163,34.8496 6.77296137,34.8864 L6.80987124,34.9048 C6.90214592,34.9416 6.97596567,34.96 7.04978541,34.9968 L7.06824034,34.9968 L7.10515021,35.0152 C7.14206009,35.0336 7.17896996,35.0336 7.21587983,35.052 C7.23433476,35.052 7.2527897,35.0704 7.27124464,35.0704 C7.28969957,35.0704 7.32660944,35.0888 7.34506438,35.0888 L7.38197425,35.0888 C7.41888412,35.1072 7.45579399,35.1072 7.49270386,35.1256 L7.5111588,35.1256 C7.54806867,35.144 7.60343348,35.144 7.64034335,35.1624 L7.69570815,35.1624 C7.71416309,35.1624 7.73261803,35.1624 7.75107296,35.1808 L7.7695279,35.1808 C7.8248927,35.1992 7.89871245,35.1992 7.95407725,35.2176 L7.97253219,35.2176 C8.06480687,35.236 8.15708155,35.2544 8.24935622,35.2544 L8.26781116,35.2544 C8.36008584,35.2728 8.43390558,35.2728 8.50772532,35.2728 L8.58154506,35.2728 C8.65536481,35.2728 8.72918455,35.2912 8.82145923,35.2912 L9.04291845,35.2912 C9.06137339,35.3096 9.06137339,35.328 9.06137339,35.3464 C9.22746781,35.6776 9.41201717,35.9904 9.59656652,36.3216 C12.5124464,42.0256 19.0824034,45.9264 26.0214592,45.9264 C32.960515,45.9264 39.6965665,40.4984 41.8927039,34.0032 C41.9849785,33.7456 42.0772532,33.5064 42.151073,33.2672 C42.4094421,32.936 42.5939914,32.5864 42.704721,32.2368 C42.8523605,31.9608 42.8708155,31.5376 42.7969957,31.2064 Z M39.9733906,42.0992 C39.8257511,42.2464 39.6412017,42.32 39.4197425,42.32 C39.1982833,42.32 39.0137339,42.2464 38.8660944,42.0992 C38.7184549,41.952 38.6446352,41.768 38.6446352,41.5472 C38.6446352,41.3264 38.7184549,41.124 38.8845494,40.9768 C39.0321888,40.8296 39.2167382,40.7744 39.4197425,40.7744 C39.6412017,40.7744 39.8257511,40.848 39.9733906,40.9952 C40.12103,41.1424 40.1948498,41.3264 40.1948498,41.5472 C40.2133047,41.768 40.139485,41.952 39.9733906,42.0992 Z M38.976824,41.0872 C38.8476395,41.216 38.7922747,41.3632 38.7922747,41.5288 C38.7922747,41.7128 38.8476395,41.86 38.976824,41.9888 C39.1060086,42.1176 39.2536481,42.1728 39.4381974,42.1728 C39.6227468,42.1728 39.7703863,42.1176 39.8995708,41.9888 C40.0287554,41.86 40.0841202,41.7128 40.0841202,41.5288 C40.0841202,41.3632 40.0287554,41.1976 39.8995708,41.0872 C39.7703863,40.9584 39.6227468,40.8848 39.4381974,40.8848 C39.2536481,40.9032 39.1060086,40.9584 38.976824,41.0872 Z M39.6781116,41.9336 C39.6042918,41.9888 39.5304721,42.0072 39.4566524,42.0072 C39.3459227,42.0072 39.2351931,41.9704 39.1429185,41.8784 C39.0506438,41.7864 39.0137339,41.676 39.0137339,41.5472 C39.0137339,41.4184 39.0506438,41.308 39.1244635,41.216 C39.1982833,41.124 39.3090129,41.0872 39.4381974,41.0872 C39.5120172,41.0872 39.5858369,41.1056 39.6596567,41.1424 C39.7519313,41.1976 39.8257511,41.2896 39.844206,41.4368 L39.6412017,41.4368 C39.6227468,41.3816 39.6042918,41.3264 39.567382,41.308 C39.5304721,41.2896 39.4935622,41.2712 39.4566524,41.2712 C39.4012876,41.2712 39.3459227,41.2896 39.3090129,41.3448 C39.272103,41.4 39.2536481,41.4736 39.2536481,41.5656 C39.2536481,41.6576 39.272103,41.7312 39.3090129,41.768 C39.3459227,41.8048 39.4012876,41.8416 39.4566524,41.8416 C39.5120172,41.8416 39.548927,41.8232 39.5858369,41.8048 L39.6412017,41.6944 L39.8257511,41.6944 C39.8072961,41.8048 39.7519313,41.8784 39.6781116,41.9336 Z" id="Shape"></path>
                            </g>
                            <g id="Group" transform="translate(3.506438, 10.672000)"></g>
                            <g id="Group" transform="translate(7.012876, 13.984000)" fill="#FCE9CD" fill-rule="nonzero">
                                <path d="M34.7137339,17.48 C34.7137339,17.48 34.7137339,17.204 34.5476395,16.9648 L34.5107296,16.928 L34.4922747,16.9096 L34.4369099,16.8544 C34.4,16.8176 34.3446352,16.7992 34.2892704,16.7624 C34.2523605,16.744 34.2339056,16.744 34.1969957,16.7256 C34.104721,16.6888 34.0124464,16.6704 33.8832618,16.6704 C33.7909871,16.6704 33.6987124,16.6704 33.5879828,16.6888 C33.551073,16.6888 33.4957082,16.7072 33.4587983,16.7072 L33.4403433,16.7072 C33.4403433,16.7072 33.4403433,16.7256 33.4587983,16.744 C33.4587983,16.7624 33.4772532,16.7808 33.4957082,16.8176 C33.4957082,16.836 33.5141631,16.836 33.5141631,16.8544 C33.532618,16.9096 33.5695279,16.9832 33.5879828,17.0752 C33.5879828,17.0752 33.5879828,17.0936 33.5695279,17.1304 L33.5695279,17.1488 C33.532618,17.2776 33.4218884,17.5904 33.1450644,18.0136 C33.0896996,18.0872 33.0527897,18.1608 32.97897,18.2344 C32.1854077,19.2832 30.3583691,20.884 26.2798283,22.1536 C24.8957082,22.5216 23.5854077,22.7056 22.4596567,22.7056 C20.7802575,22.7056 19.488412,22.3376 18.8240343,21.6936 L18.6579399,21.528 C18.62103,21.4912 18.5841202,21.436 18.5472103,21.3992 C18.5287554,21.3808 18.5287554,21.3624 18.5103004,21.344 C18.2150215,20.9392 18.048927,20.4792 17.9935622,20.0192 C17.9381974,19.4672 18.0304721,18.8968 18.2888412,18.4552 C18.4918455,18.0872 18.7686695,17.8112 19.1377682,17.6456 C19.3223176,17.572 19.506867,17.5168 19.7098712,17.4984 L20.5218884,17.4984 C21.3154506,17.4984 22.5703863,17.4616 24.0652361,17.1856 C26.7781116,16.6704 30.2845494,15.364 33.2004292,12.0152 L33.2004292,11.9968 C33.1819742,11.7576 33.0896996,11.316 32.7390558,11.0032 C32.683691,10.948 32.6098712,10.8928 32.5175966,10.856 C32.4806867,10.8376 32.4253219,10.8008 32.3699571,10.7824 C32.3145923,10.764 32.2776824,10.7456 32.2223176,10.7272 C32.1669528,10.6904 32.093133,10.672 32.0562232,10.6352 L32.0562232,10.6168 C32.0377682,10.58 32.0008584,10.5616 31.9824034,10.5248 C30.967382,9.3472 29.7124464,8.74 29.1957082,8.464 C28.955794,8.3352 28.8081545,8.28 28.8081545,8.28 C27.7193133,7.7832 27.5532189,7.5992 27.4240343,5.9248 C27.3871245,5.3176 27.3502146,4.5264 27.2763948,3.4408 C27.2763948,3.2936 27.2579399,3.1648 27.239485,3.036 C27.239485,2.9992 27.239485,2.9808 27.22103,2.944 C27.2025751,2.8152 27.1841202,2.7048 27.1656652,2.5944 L27.1656652,2.5208 C27.1472103,2.4288 27.1287554,2.3368 27.1103004,2.2632 C27.1103004,2.2264 27.0918455,2.1896 27.0918455,2.1528 C27.0733906,2.0608 27.0549356,1.9688 27.0180258,1.8952 C26.9995708,1.8584 26.9995708,1.8032 26.9811159,1.7664 C26.9626609,1.7112 26.944206,1.6744 26.9257511,1.6376 C26.9072961,1.6008 26.8888412,1.5456 26.8703863,1.5088 C26.8519313,1.4536 26.8334764,1.4168 26.8150215,1.3616 C26.8150215,1.3432 26.7965665,1.3248 26.7965665,1.3064 C26.7965665,1.288 26.7781116,1.2696 26.7781116,1.2512 L26.7781116,1.2328 L26.7596567,1.1776 L26.7042918,1.0672 L26.7042918,1.0488 L26.6858369,1.012 L26.667382,0.9752 C26.6304721,0.9016 26.5935622,0.8464 26.5381974,0.7912 L26.5012876,0.7544 C26.4459227,0.6992 26.4090129,0.644 26.3536481,0.5888 L26.3351931,0.5704 L26.3167382,0.552 C26.2798283,0.5152 26.2429185,0.4784 26.2244635,0.4416 L26.1875536,0.4048 C26.1506438,0.368 26.095279,0.3312 26.0583691,0.2944 C26.0030043,0.2576 25.9476395,0.2024 25.8922747,0.1656 C25.8369099,0.1288 25.7815451,0.1104 25.7077253,0.092 C25.6892704,0.092 25.6708155,0.0736 25.6523605,0.0736 C25.6154506,0.0552 25.5785408,0.0552 25.5416309,0.0368 C25.523176,0.0368 25.504721,0.0368 25.4678112,0.0184 C25.4309013,0.0184 25.3939914,-5.68434189e-14 25.3570815,-5.68434189e-14 L24.9695279,-5.68434189e-14 C24.932618,-5.68434189e-14 24.9141631,0.0184 24.8772532,0.0184 C24.8587983,0.0184 24.8403433,0.0184 24.8218884,0.0368 L24.7849785,0.0552 C24.7665236,0.0552 24.7480687,0.0736 24.7296137,0.0736 C24.7111588,0.0736 24.6927039,0.092 24.6742489,0.092 C24.6373391,0.1104 24.6004292,0.1288 24.5635193,0.1288 L24.5266094,0.1472 C24.4343348,0.184 24.3236052,0.2392 24.2313305,0.2944 L24.1944206,0.3128 C24.1575107,0.3312 24.1206009,0.368 24.083691,0.3864 L24.0467811,0.4232 C24.0098712,0.4416 23.9729614,0.4784 23.9360515,0.4968 L23.8991416,0.5336 C23.8622318,0.552 23.8253219,0.5888 23.806867,0.6072 L23.7699571,0.644 C23.7330472,0.6808 23.6961373,0.6992 23.6592275,0.736 L23.6223176,0.7728 C23.5854077,0.8096 23.5484979,0.8464 23.511588,0.8648 L23.493133,0.8832 C23.4562232,0.92 23.4008584,0.9568 23.3639485,0.9936 C23.2901288,1.0672 23.1978541,1.1408 23.1240343,1.2144 C23.0502146,1.2696 22.9763948,1.3432 22.92103,1.3984 L22.8841202,1.4352 C22.8103004,1.4904 22.7364807,1.564 22.6626609,1.6192 L22.6257511,1.656 L22.4042918,1.8216 L22.367382,1.8584 C22.2935622,1.9136 22.2197425,1.9688 22.1274678,2.024 L22.0905579,2.0424 C22.0167382,2.0976 21.9244635,2.1344 21.8506438,2.1896 L21.8137339,2.208 C21.7214592,2.2448 21.6476395,2.3 21.5553648,2.3368 L21.5369099,2.3368 C21.4446352,2.3736 21.3523605,2.4104 21.2416309,2.4288 C21.0755365,2.4656 20.9094421,2.5024 20.7433476,2.5208 C20.4665236,2.5576 20.1896996,2.576 19.8944206,2.5576 C19.8021459,2.5576 19.7098712,2.5576 19.5991416,2.5392 L19.488412,2.5392 C19.2300429,2.5208 18.9901288,2.5024 18.7317597,2.4656 C18.62103,2.4472 18.5103004,2.4472 18.4180258,2.4288 C18.2519313,2.4104 18.067382,2.392 17.9012876,2.3736 C17.8643777,2.3736 17.8274678,2.3736 17.7905579,2.3552 L17.7167382,2.3552 C17.6798283,2.3552 17.6429185,2.3552 17.6060086,2.3368 L17.3660944,2.3368 C17.2922747,2.3368 17.2,2.3368 17.1261803,2.3184 L16.3141631,2.3184 C16.2587983,2.3184 16.2034335,2.3368 16.1480687,2.3368 L16.055794,2.3368 C15.9819742,2.3368 15.9266094,2.3552 15.8527897,2.3736 L15.7974249,2.3736 C15.7236052,2.392 15.6313305,2.4104 15.5575107,2.4288 C15.5390558,2.4288 15.5206009,2.4472 15.483691,2.4472 C15.4283262,2.4656 15.3729614,2.4656 15.3175966,2.484 L15.2991416,2.484 C15.2622318,2.484 15.2437768,2.5024 15.206867,2.5024 L15.0407725,2.5576 C15.0038627,2.576 14.9854077,2.576 14.9484979,2.5944 C14.893133,2.6128 14.8377682,2.6312 14.7824034,2.668 C14.7454936,2.6864 14.7270386,2.6864 14.6901288,2.7048 C14.6347639,2.7232 14.5793991,2.76 14.5240343,2.7784 C14.5055794,2.7968 14.4686695,2.7968 14.4502146,2.8152 C14.3579399,2.852 14.2841202,2.9072 14.1918455,2.9624 C13.5459227,3.4408 13.0107296,4.0664 12.623176,4.7656 C12.4939914,5.0048 12.3832618,5.244 12.2725322,5.4832 C12.1618026,5.7408 12.0695279,6.0168 12.0141631,6.2744 C11.9957082,6.348 11.9772532,6.44 11.9587983,6.5136 C11.9218884,6.6424 11.9034335,6.7896 11.8849785,6.9184 L11.8849785,6.9552 C11.8665236,7.1024 11.8480687,7.268 11.8296137,7.4152 C11.8111588,7.5808 11.8111588,7.7464 11.8111588,7.8936 L11.8111588,8.1512 C11.8296137,8.3904 11.8480687,8.6112 11.9034335,8.8504 C11.9034335,8.8688 11.9034335,8.8872 11.9218884,8.9056 C11.9403433,8.9608 11.9403433,9.016 11.9587983,9.0896 C11.9957082,9.2552 12.032618,9.4208 12.0879828,9.568 C12.1064378,9.6232 12.1248927,9.6784 12.1618026,9.7336 L12.2171674,9.8992 C12.3832618,10.304 12.604721,10.6536 12.8446352,10.9848 C13.767382,12.1992 15.1145923,12.8248 16.055794,13.1192 C16.4248927,13.2296 16.8124464,13.3216 17.2,13.3952 L17.1630901,13.432 C17.0892704,13.4504 17.0154506,13.4872 16.9416309,13.524 C16.8124464,13.5792 16.6648069,13.6344 16.4987124,13.7264 C16.3141631,13.8184 16.1111588,13.9104 15.9081545,14.0392 C15.3545064,14.352 14.7270386,14.7752 14.2103004,15.3272 C14.1364807,15.4008 14.0811159,15.4744 14.0072961,15.5296 C13.8965665,15.6584 13.8042918,15.7872 13.7120172,15.916 C13.6935622,15.9344 13.6935622,15.9528 13.6751073,15.9528 C13.6566524,15.9712 13.6381974,15.9896 13.6381974,16.008 L13.5274678,16.1736 C13.5090129,16.192 13.5090129,16.2104 13.4905579,16.2472 C13.4536481,16.3208 13.3982833,16.3944 13.3613734,16.4864 C13.3244635,16.56 13.2875536,16.652 13.2506438,16.7256 C12.9738197,17.3696 12.8630901,18.124 13.0476395,18.9888 L13.0476395,18.952 L13.0476395,18.8784 L13.0476395,18.7864 C13.0476395,18.768 13.0476395,18.7312 13.0660944,18.6944 C13.0660944,18.6576 13.0845494,18.6208 13.0845494,18.6024 L13.0845494,18.584 C13.0845494,18.5472 13.1030043,18.5104 13.1030043,18.4736 L13.1030043,18.4552 C13.1030043,18.4184 13.1214592,18.3816 13.1399142,18.3448 L13.1399142,18.3264 C13.1583691,18.2896 13.1583691,18.2344 13.176824,18.1976 L13.176824,18.1608 C13.195279,18.124 13.2137339,18.0688 13.2321888,18.0136 C13.2506438,17.94 13.2875536,17.8664 13.3244635,17.7928 C13.3429185,17.7744 13.3429185,17.7376 13.3613734,17.7192 L13.3798283,17.7008 C13.4167382,17.6456 13.4351931,17.5904 13.472103,17.5352 C13.4905579,17.48 13.5274678,17.4432 13.5643777,17.388 C13.5828326,17.3696 13.5828326,17.3512 13.6012876,17.3512 C13.6197425,17.3144 13.6566524,17.2776 13.6751073,17.2408 C13.6935622,17.2224 13.6935622,17.204 13.7120172,17.204 C13.748927,17.1488 13.7858369,17.112 13.8227468,17.0752 C13.8227468,17.0752 13.2506438,18.952 13.767382,20.332 L13.767382,20.3136 L13.767382,20.2768 L13.767382,20.2216 L13.767382,20.148 L13.767382,20.056 L13.767382,19.9456 L13.767382,19.8352 L13.767382,19.8168 L13.767382,19.6512 C13.767382,19.596 13.767382,19.5408 13.7858369,19.504 L13.7858369,19.4856 C13.7858369,19.4304 13.8042918,19.3752 13.8042918,19.32 C13.8042918,19.3016 13.8042918,19.2832 13.8227468,19.2648 L13.8227468,19.228 C13.8412017,19.1912 13.8412017,19.136 13.8596567,19.0992 C13.8781116,19.044 13.8965665,18.9704 13.9150215,18.9152 C13.9150215,18.8968 13.9334764,18.8784 13.9334764,18.86 C13.9519313,18.8048 13.9888412,18.7496 14.0257511,18.6944 C14.0257511,18.6944 14.0257511,19.136 14.1180258,19.6696 C14.1364807,19.7432 14.1364807,19.8352 14.1549356,19.9272 C14.1733906,19.9824 14.1733906,20.0376 14.1918455,20.0928 C14.2103004,20.4608 14.2656652,20.8288 14.3579399,21.2152 C14.5055794,21.8592 14.7454936,22.5216 15.0961373,23.2024 C15.0961373,23.2024 14.7454936,22.4112 15.0038627,21.5464 C15.0407725,21.62 15.0961373,21.6936 15.1330472,21.7672 C15.188412,22.0064 15.2806867,22.356 15.4098712,22.724 C15.5575107,23.3496 16.1111588,25.2264 17.5690987,26.404 C17.5690987,26.404 16.9969957,25.8336 16.9785408,24.9872 C17.0523605,25.0976 17.1077253,25.1896 17.1630901,25.2632 C17.4399142,25.6496 17.9751073,26.3672 18.5287554,26.8456 C18.5287554,26.8456 18.048927,26.1464 18.1042918,25.9624 C18.1042918,25.9624 19.5806867,27.3976 20.0051502,27.4896 L19.3592275,26.68 L19.3407725,26.6616 C21.3708155,27.784 23.9729614,27.9496 27.0180258,26.6984 C27.5347639,26.4776 28.0699571,26.22 28.6236052,25.9072 C28.955794,25.7048 29.2879828,25.5024 29.6201717,25.2632 L29.6755365,25.2264 C29.8969957,25.0608 30.1184549,24.8952 30.3399142,24.7112 C30.5060086,24.5824 30.672103,24.4352 30.8381974,24.288 C31.1150215,24.0488 31.3733906,23.7912 31.6317597,23.5152 C31.6502146,23.4968 31.6686695,23.4784 31.6686695,23.46 C31.9270386,23.184 32.1484979,22.8896 32.3699571,22.6136 C32.6467811,22.2272 32.9051502,21.8592 33.1266094,21.4728 L33.1450644,21.4544 C33.2004292,21.3624 33.255794,21.2704 33.2927039,21.1784 L33.3111588,21.16 C33.3296137,21.1232 33.3480687,21.1048 33.3665236,21.068 C33.4403433,20.9392 33.5141631,20.8104 33.5695279,20.6632 C33.5879828,20.6264 33.6064378,20.608 33.6064378,20.5712 C33.6433476,20.4976 33.6618026,20.424 33.6987124,20.3688 C33.7171674,20.3136 33.7540773,20.2584 33.7725322,20.2032 C33.7909871,20.148 33.827897,20.0928 33.8463519,20.0376 C33.8832618,19.9272 33.9386266,19.8352 33.9755365,19.7248 C33.9939914,19.688 34.0124464,19.6512 34.0124464,19.596 C34.0493562,19.5224 34.0678112,19.4304 34.104721,19.3568 C34.123176,19.32 34.123176,19.2832 34.1416309,19.2464 L34.1600858,19.2096 C34.1969957,19.1176 34.2339056,19.0072 34.2523605,18.9152 L34.2523605,18.8968 C34.4,18.7312 34.4922747,18.5656 34.5845494,18.4184 C34.6030043,18.4 34.6030043,18.3816 34.6214592,18.3632 C34.695279,18.032 34.7321888,17.7376 34.7137339,17.48 M4.50300429,16.4864 C4.44763948,16.5048 4.39227468,16.5968 4.35536481,16.6888 C4.33690987,16.7256 4.31845494,16.7808 4.3,16.8176 C4.17081545,17.1488 4.07854077,17.6088 4.07854077,17.6088 C4.07854077,17.4616 4.07854077,17.3144 4.06008584,17.1488 L4.06008584,17.0936 L4.06008584,16.6152 L4.06008584,16.56 C4.06008584,16.376 4.07854077,16.2104 4.07854077,16.0448 L4.07854077,15.9528 L4.07854077,15.8976 L4.07854077,15.8056 C4.07854077,15.6768 4.09699571,15.548 4.09699571,15.4192 C4.09699571,15.3088 4.11545064,15.1984 4.11545064,15.1064 L4.11545064,15.0696 L4.11545064,15.0328 L4.11545064,14.996 L4.11545064,14.9224 L4.11545064,14.8488 L4.11545064,14.72 L4.11545064,14.6464 C4.11545064,14.6096 4.11545064,14.5728 4.13390558,14.5544 L4.13390558,14.4992 L4.13390558,14.4624 L4.13390558,14.3336 L4.09699571,14.3704 C4.07854077,14.4072 4.0416309,14.4256 4.02317597,14.4624 L4.00472103,14.4992 C3.96781116,14.536 3.94935622,14.5912 3.93090129,14.628 L3.91244635,14.6464 C3.87553648,14.7016 3.85708155,14.7568 3.82017167,14.812 L3.80171674,14.8304 C3.80171674,14.8488 3.7832618,14.8672 3.7832618,14.8672 C3.76480687,14.904 3.74635193,14.9408 3.74635193,14.9776 L3.74635193,15.0144 L3.69098712,15.18 C3.65407725,15.3456 3.61716738,15.4928 3.59871245,15.6032 C3.59871245,15.64 3.58025751,15.6952 3.58025751,15.732 C3.56180258,15.8056 3.56180258,15.8792 3.56180258,15.8976 L3.56180258,15.916 L3.56180258,15.8976 L3.56180258,15.7504 C3.56180258,15.6584 3.54334764,15.548 3.54334764,15.456 L3.54334764,15.2168 L3.54334764,15.1432 L3.54334764,15.0328 L3.54334764,14.8672 L3.54334764,14.7384 L3.54334764,14.6464 L3.54334764,14.6096 L3.54334764,14.5544 C3.54334764,14.4992 3.56180258,14.4256 3.56180258,14.3704 L3.56180258,14.352 C3.56180258,14.3152 3.56180258,14.26 3.58025751,14.2232 L3.58025751,14.2048 C3.59871245,14.1128 3.59871245,14.0208 3.61716738,13.9288 L3.61716738,13.892 L3.61716738,13.8368 C3.63562232,13.6896 3.67253219,13.5424 3.70944206,13.3952 L3.70944206,13.3768 C3.727897,13.248 3.76480687,13.1376 3.80171674,13.0088 L3.80171674,12.9904 C3.82017167,12.9352 3.83862661,12.88 3.83862661,12.8432 C3.85708155,12.7696 3.87553648,12.696 3.89399142,12.604 L3.89399142,12.5856 C3.89399142,12.5672 3.91244635,12.512 3.93090129,12.4568 C3.93090129,12.4384 3.94935622,12.4016 3.94935622,12.3832 C3.96781116,12.3464 3.96781116,12.2912 3.98626609,12.2544 L4.00472103,12.2176 C3.98626609,12.1992 3.94935622,12.1992 3.91244635,12.1808 L3.89399142,12.1808 L3.85708155,12.1624 C3.67253219,12.1072 3.48798283,12.052 3.30343348,12.0336 L3.26652361,12.0336 C3.13733906,12.0152 3.02660944,12.0152 2.89742489,12.0152 C2.82360515,12.0152 2.74978541,12.0152 2.67596567,12.0336 C2.62060086,12.0336 2.54678112,12.052 2.49141631,12.052 L2.21459227,12.1072 C2.1776824,12.1072 2.15922747,12.1256 2.14077253,12.1256 C2.10386266,12.144 2.04849785,12.144 2.01158798,12.1624 C1.99313305,12.1624 1.97467811,12.1808 1.95622318,12.1808 C1.9193133,12.1992 1.90085837,12.1992 1.8639485,12.2176 C1.80858369,12.236 1.75321888,12.2728 1.69785408,12.2912 C1.67939914,12.3096 1.64248927,12.3096 1.62403433,12.328 C1.55021459,12.3648 1.47639485,12.4016 1.40257511,12.4568 C1.36566524,12.4752 1.3472103,12.4936 1.32875536,12.512 C1.29184549,12.5304 1.25493562,12.5488 1.23648069,12.5856 L1.19957082,12.604 C1.16266094,12.6224 1.12575107,12.6592 1.0888412,12.6776 C1.05193133,12.696 1.03347639,12.7328 0.996566524,12.7512 C0.959656652,12.788 0.922746781,12.8064 0.88583691,12.8432 L0.830472103,12.8984 C0.775107296,12.9536 0.719742489,13.0088 0.664377682,13.0824 C0.645922747,13.1192 0.609012876,13.1376 0.59055794,13.1744 C0.553648069,13.2296 0.498283262,13.2848 0.461373391,13.34 L0.442918455,13.3768 C0.424463519,13.4136 0.406008584,13.4504 0.387553648,13.4688 C0.369098712,13.4872 0.369098712,13.5056 0.350643777,13.5424 C0.276824034,13.6896 0.203004292,13.8368 0.147639485,13.984 C0.147639485,14.0024 0.129184549,14.0208 0.129184549,14.0576 L0.0738197425,14.2784 C0.0738197425,14.3152 0.0553648069,14.3336 0.0553648069,14.3704 C0.0369098712,14.444 0.0184549356,14.536 0.0184549356,14.6096 L0.0184549356,14.6832 C0.0184549356,14.7384 -7.10542736e-15,14.7936 -7.10542736e-15,14.8672 L-7.10542736e-15,15.1248 C-7.10542736e-15,15.2168 0.0184549356,15.3088 0.0184549356,15.4008 C0.0369098712,15.4744 0.0369098712,15.548 0.0553648069,15.6216 L0.0553648069,15.6584 C0.0553648069,15.6952 0.0738197425,15.732 0.0922746781,15.7688 C0.129184549,15.916 0.184549356,16.0448 0.239914163,16.1736 C0.276824034,16.2656 0.332188841,16.376 0.387553648,16.468 C0.479828326,16.6336 0.609012876,16.7992 0.719742489,16.9464 C0.978111588,17.2592 1.31030043,17.4984 1.67939914,17.6824 C1.88240343,17.7744 2.10386266,17.848 2.34377682,17.9032 C2.56523605,17.9584 2.78669528,17.9768 3.02660944,17.9768 L3.19270386,17.9768 C3.26652361,17.9768 3.35879828,17.9584 3.43261803,17.9584 C3.50643777,17.94 3.58025751,17.9216 3.65407725,17.9216 C3.69098712,17.9216 3.727897,17.9032 3.7832618,17.9032 C3.89399142,17.8848 3.98626609,17.848 4.07854077,17.8112 L4.09699571,17.8112 L4.20772532,17.756 C4.33690987,17.7008 4.44763948,17.6456 4.5583691,17.572 L4.57682403,17.5536 C4.61373391,17.5352 4.63218884,17.5168 4.66909871,17.4984 C4.57682403,17.1856 4.48454936,16.8728 4.41072961,16.5416 C4.52145923,16.5416 4.50300429,16.5048 4.50300429,16.4864" id="Shape"></path>
                            </g>
                            <g id="Group" transform="translate(21.592275, 16.008000)" fill="#E9B784" fill-rule="nonzero">
                                <path d="M3.89399142,2.3184 C3.74635193,2.2632 3.59871245,2.2264 3.45107296,2.208 C3.35879828,2.1896 3.24806867,2.1896 3.15579399,2.1896 L3.04506438,2.1896 C2.54678112,2.208 2.14077253,2.3368 2.14077253,2.3368 C2.04849785,2.3736 1.97467811,2.4104 1.88240343,2.4472 C1.23648069,2.7232 0.830472103,3.128 0.553648069,3.5696 C0.332188841,3.9192 0.203004292,4.3056 0.147639485,4.6552 C0.147639485,4.692 0.129184549,4.7104 0.129184549,4.7472 C0.110729614,4.8392 0.110729614,4.9312 0.0922746781,5.0232 C0.0738197425,5.3176 0.0738197425,5.5936 0.0922746781,5.796 C0.110729614,6.0904 0.166094421,6.2744 0.166094421,6.2744 C0.258369099,6.0168 0.350643777,5.7592 0.442918455,5.5384 C0.682832618,4.968 0.959656652,4.4896 1.25493562,4.1032 C1.82703863,3.3488 2.45450644,2.9072 2.9527897,2.6496 C3.50643777,2.3736 3.89399142,2.3184 3.89399142,2.3184 M11.7004292,0.4048 L11.6819742,0.3864 C11.5896996,0.2944 11.4974249,0.2208 11.3866953,0.1656 C11.1098712,0.0184 10.7592275,-0.0184 10.2793991,0.1288 C10.2793991,0.1288 9.72575107,0.3312 9.4304721,0.7544 C9.4304721,0.7544 10.3716738,0.2024 11.5158798,0.828 C11.6266094,0.8832 11.7188841,0.9568 11.8296137,1.0304 C11.9403433,1.104 12.051073,1.196 12.1618026,1.3064 C12.1618026,1.3064 12.0695279,0.8464 11.755794,0.4968 C11.7373391,0.4416 11.7188841,0.4232 11.7004292,0.4048 M2.4360515,7.0104 C2.47296137,6.9736 2.50987124,6.9368 2.54678112,6.9184 C2.56523605,6.9 2.58369099,6.8816 2.60214592,6.8816 C2.63905579,6.8448 2.67596567,6.8264 2.71287554,6.7896 C2.73133047,6.7712 2.74978541,6.7528 2.78669528,6.7344 C2.82360515,6.716 2.86051502,6.6792 2.89742489,6.6608 C2.91587983,6.6424 2.9527897,6.624 2.97124464,6.6056 C3.00815451,6.5872 3.04506438,6.5504 3.08197425,6.532 C3.11888412,6.5136 3.13733906,6.4952 3.17424893,6.4768 C3.2111588,6.4584 3.24806867,6.44 3.30343348,6.4216 L3.41416309,6.3664 C3.45107296,6.348 3.50643777,6.3296 3.54334764,6.3112 C3.58025751,6.2928 3.63562232,6.2744 3.67253219,6.2744 C3.70944206,6.256 3.74635193,6.2376 3.80171674,6.2376 L3.82017167,6.2376 C3.87553648,6.2192 3.93090129,6.2008 4.00472103,6.2008 C4.02317597,6.2008 4.0416309,6.2008 4.06008584,6.1824 C4.09699571,6.1824 4.13390558,6.164 4.17081545,6.164 L4.22618026,6.164 C4.26309013,6.164 4.3,6.164 4.33690987,6.1456 L4.53991416,6.1456 C4.61373391,6.1456 4.68755365,6.1456 4.76137339,6.164 L4.79828326,6.164 C4.872103,6.164 4.92746781,6.1824 5.00128755,6.2008 L5.03819742,6.2008 C5.11201717,6.2192 5.16738197,6.2192 5.22274678,6.2376 L5.24120172,6.2376 C5.29656652,6.256 5.37038627,6.2744 5.42575107,6.2928 C5.49957082,6.3112 5.55493562,6.348 5.61030043,6.3664 C5.66566524,6.3848 5.72103004,6.4216 5.77639485,6.4584 C5.68412017,6.1272 5.40729614,5.4096 4.63218884,5.2256 C4.52145923,5.2072 4.41072961,5.1888 4.28154506,5.1888 L4.18927039,5.1888 C4.07854077,5.1888 3.94935622,5.2072 3.82017167,5.244 C2.36223176,5.5568 2.28841202,6.7712 2.30686695,7.176 C2.34377682,7.1392 2.3806867,7.084 2.41759657,7.0472 L2.4360515,7.0104" id="Shape"></path>
                            </g>
                            <path d="M40.4901288,30.8568 C40.4901288,30.8384 40.4716738,30.82 40.4716738,30.82 C40.4532189,30.7832 40.4532189,30.7648 40.4347639,30.7464 C40.3055794,30.4704 40.1579399,30.2496 40.0472103,30.1024 C39.8995708,29.9184 39.7703863,29.8264 39.7703863,29.8264 C39.7888412,29.7528 39.7888412,29.6792 39.7888412,29.6056 C39.7888412,29.5136 39.8072961,29.4216 39.8072961,29.3296 C39.8072961,28.6488 39.567382,28.1704 39.3828326,27.8944 C39.3459227,27.8576 39.3274678,27.8208 39.3090129,27.784 C39.2167382,27.876 39.1244635,27.9496 39.0321888,28.0416 C37.2236052,29.6056 35.1197425,30.7464 32.7575107,31.4088 C31.1334764,31.8688 29.3987124,32.108 27.5532189,32.108 L27.5901288,32.108 C27.5901288,32.108 26.5197425,32.384 26.3536481,33.4696 L26.372103,33.4696 L26.372103,34.1872 C26.5197425,35.1256 27.0364807,35.6776 27.5716738,35.9168 C28.106867,36.0456 28.7527897,36.1192 29.4540773,36.1192 C30.672103,36.1192 32.0377682,35.9168 33.4218884,35.512 C35.267382,35.0336 37.7772532,33.7088 39.4935622,32.2 C39.8811159,31.8504 40.2317597,31.5008 40.5270386,31.1328 L40.5454936,31.1144 L40.5639485,31.096 C40.5454936,31.004 40.5270386,30.912 40.4901288,30.8568" id="Path" fill="#FFFFFF"></path>
                            <g id="Group" transform="translate(7.012876, 14.536000)" fill="#F2D2AC">
                                <path d="M18.344206,7.7096 C18.3072961,7.728 18.2703863,7.728 18.2150215,7.7464 C18.2703863,7.7464 18.3072961,7.728 18.344206,7.7096 L18.3626609,7.7096 L18.344206,7.7096" id="Path"></path>
                                <path d="M18.6579399,11.6472 C18.7133047,11.6104 18.7871245,11.5552 18.8424893,11.5184 C18.8609442,11.5 18.8978541,11.4816 18.916309,11.4632 C18.9716738,11.4264 19.0454936,11.3896 19.1008584,11.3344 C19.1377682,11.316 19.1562232,11.2976 19.193133,11.2792 C19.2484979,11.2424 19.3223176,11.2056 19.3776824,11.1688 C19.4145923,11.1504 19.4515021,11.132 19.4699571,11.1136 C19.5253219,11.0768 19.5991416,11.04 19.6545064,11.0032 C19.6914163,10.9848 19.7283262,10.9664 19.7652361,10.9296 C19.8206009,10.8928 19.8944206,10.856 19.9497854,10.8192 C19.9866953,10.8008 20.0420601,10.764 20.07897,10.7456 C20.1343348,10.7088 20.2081545,10.672 20.2635193,10.6536 C20.3188841,10.6352 20.355794,10.5984 20.4111588,10.58 C20.4665236,10.5432 20.5403433,10.5248 20.5957082,10.488 C20.651073,10.4696 20.7064378,10.4328 20.7618026,10.4144 C20.8171674,10.3776 20.8909871,10.3592 20.9463519,10.3224 C21.0017167,10.2856 21.0570815,10.2672 21.1309013,10.2304 C21.1862661,10.212 21.2416309,10.1752 21.3154506,10.1568 C21.3892704,10.12 21.4446352,10.1016 21.5184549,10.0648 C21.5738197,10.0464 21.6291845,10.0096 21.6845494,9.9912 C21.7583691,9.9544 21.8321888,9.936 21.9060086,9.8992 L22.0167382,9.844 C22.2197425,9.0528 22.8841202,7.084 24.37897,6.6976 C24.5450644,6.6608 24.6927039,6.624 24.8218884,6.6056 C24.8587983,6.6056 24.8957082,6.5872 24.932618,6.5872 C24.8957082,6.4768 24.8772532,6.3664 24.8587983,6.256 C24.7111588,5.4648 24.8772532,4.7656 25.227897,4.692 C25.504721,4.6368 25.7630901,5.0048 25.8184549,5.1336 C25.9476395,5.3728 26.0583691,5.6672 26.1321888,6.0168 C26.1875536,6.3296 26.2060086,6.624 26.1690987,6.8816 L26.2613734,6.9736 C26.667382,7.36 26.7965665,7.9488 26.8334764,8.372 C26.9626609,8.3352 27.1103004,8.3168 27.239485,8.28 C27.2763948,8.28 27.3133047,8.2616 27.3502146,8.2616 L27.3686695,8.2616 C27.3871245,8.2616 27.4055794,8.2616 27.4240343,8.2432 C27.5901288,8.2064 27.7746781,8.1696 27.9407725,8.1328 C28.3283262,8.0592 28.7527897,7.9856 29.1587983,7.912 C28.9188841,7.7832 28.7712446,7.728 28.7712446,7.728 C27.6824034,7.2312 27.516309,7.0472 27.3871245,5.3728 C27.3502146,4.7656 27.3133047,3.9744 27.239485,2.8888 C27.239485,2.7416 27.22103,2.6128 27.2025751,2.484 C27.2025751,2.4472 27.2025751,2.4288 27.1841202,2.392 C27.1656652,2.2632 27.1472103,2.1528 27.1287554,2.0424 L27.1287554,1.9688 C27.1103004,1.8768 27.0918455,1.7848 27.0733906,1.7112 C27.0733906,1.6744 27.0549356,1.6376 27.0549356,1.6008 C27.0364807,1.5088 27.0180258,1.4168 26.9811159,1.3432 C26.9626609,1.3064 26.9626609,1.2512 26.944206,1.2144 C26.9257511,1.1592 26.9072961,1.1224 26.8888412,1.0856 C26.8703863,1.0488 26.8519313,0.9936 26.8334764,0.9568 C26.667382,0.7544 26.4643777,0.5888 26.2429185,0.46 L26.2060086,0.4416 L26.1690987,0.4232 L26.1506438,0.4232 C26.1137339,0.4048 26.076824,0.3864 26.0583691,0.368 L25.9476395,0.3128 C25.6339056,0.1656 25.2832618,0.092 24.9141631,0.092 C24.7111588,0.092 24.5081545,0.1104 24.3051502,0.1288 C24.2128755,0.1472 24.1021459,0.1656 24.0098712,0.184 C23.7515021,0.2392 23.493133,0.3312 23.2347639,0.4416 C23.1609442,0.5152 23.0686695,0.5888 22.9948498,0.6624 C22.92103,0.7176 22.8472103,0.7912 22.7918455,0.8464 L22.7549356,0.8832 C22.6811159,0.9384 22.6072961,1.012 22.5334764,1.0672 L22.4965665,1.104 L22.2751073,1.2696 L22.2381974,1.3064 C22.1643777,1.3616 22.0905579,1.4168 21.9982833,1.472 L21.9613734,1.4904 C21.8875536,1.5456 21.795279,1.5824 21.7214592,1.6376 L21.6845494,1.656 C21.5922747,1.6928 21.5184549,1.748 21.4261803,1.7848 L21.4077253,1.7848 C21.3154506,1.8216 21.223176,1.8584 21.1124464,1.8768 C20.9463519,1.9136 20.7802575,1.9504 20.6141631,1.9688 C20.3373391,2.0056 20.060515,2.024 19.7652361,2.0056 C19.6729614,2.0056 19.5806867,2.0056 19.4699571,1.9872 L19.3592275,1.9872 C19.1008584,1.9688 18.8609442,1.9504 18.6025751,1.9136 C18.4918455,1.8952 18.3811159,1.8952 18.2888412,1.8768 C18.1227468,1.8584 17.9381974,1.84 17.772103,1.8216 C17.7351931,1.8216 17.6982833,1.8216 17.6613734,1.8032 C17.5137339,1.8216 17.3845494,1.8584 17.2369099,1.8952 L17.2,1.8952 C16.7939914,2.0056 16.3879828,2.1528 16.0004292,2.3368 C15.9819742,2.3552 15.9635193,2.3552 15.9266094,2.3736 C15.8712446,2.4104 15.7974249,2.4288 15.7420601,2.4656 C15.6682403,2.5024 15.5759657,2.5576 15.5021459,2.6128 C14.9300429,2.944 14.3948498,3.3856 13.9150215,3.9008 C13.7120172,4.1032 13.5459227,4.324 13.3798283,4.5632 C13.1214592,4.9128 12.9,5.2808 12.7154506,5.6488 C12.6969957,5.6672 12.6969957,5.6856 12.6785408,5.704 C12.5862661,5.9064 12.4939914,6.1088 12.4201717,6.3112 C12.4017167,6.3848 12.3648069,6.4584 12.3463519,6.532 L12.3463519,6.5504 C12.2725322,6.7896 12.1987124,7.0288 12.1433476,7.2864 L12.1433476,7.3232 C12.1433476,7.36 12.1248927,7.3968 12.1248927,7.4336 L12.0695279,7.7648 C12.051073,7.8752 12.032618,8.004 12.032618,8.1144 L12.032618,8.188 C12.032618,8.2616 12.032618,8.3352 12.0141631,8.4088 C12.0141631,8.6664 12.0141631,8.924 12.051073,9.1816 C12.051073,9.2368 12.0695279,9.3104 12.0695279,9.3656 C12.2356223,9.7704 12.4570815,10.12 12.6969957,10.4512 C13.6197425,11.6656 14.9669528,12.2912 15.9081545,12.5856 C16.2772532,12.696 16.6648069,12.788 17.0523605,12.8616 L17.0708155,12.88 L17.0892704,12.8616 L17.2184549,12.7328 L17.2738197,12.6776 C17.3291845,12.6408 17.3660944,12.5856 17.4214592,12.5488 C17.4399142,12.5304 17.4583691,12.512 17.476824,12.512 C17.5321888,12.4752 17.5690987,12.42 17.6244635,12.3832 C17.6429185,12.3648 17.6613734,12.3464 17.6798283,12.3464 C17.7351931,12.3096 17.7905579,12.2544 17.8459227,12.2176 C17.8643777,12.1992 17.8828326,12.1808 17.9012876,12.1808 C17.9566524,12.144 18.0120172,12.0888 18.067382,12.052 C18.0858369,12.0336 18.1042918,12.0152 18.1227468,12.0152 C18.1781116,11.9784 18.2334764,11.9232 18.2888412,11.8864 L18.344206,11.8312 C18.3995708,11.7944 18.4549356,11.7392 18.5287554,11.7024 C18.62103,11.684 18.639485,11.6656 18.6579399,11.6472 M24.8403433,1.6008 C25.3017167,1.4352 25.6708155,1.4904 25.9476395,1.6376 C26.0583691,1.6928 26.1690987,1.7664 26.2429185,1.8584 L26.2613734,1.8768 C26.2798283,1.8952 26.2982833,1.9136 26.3167382,1.9504 C26.6304721,2.3184 26.7227468,2.76 26.7227468,2.76 C26.6120172,2.6496 26.5012876,2.576 26.3905579,2.484 C26.2798283,2.4104 26.1690987,2.3368 26.076824,2.2816 C24.932618,1.656 23.9914163,2.208 23.9914163,2.208 C24.2866953,1.8032 24.8403433,1.6008 24.8403433,1.6008 M15.8527897,5.5752 C15.5575107,5.9616 15.2806867,6.44 15.0407725,7.0104 C14.9484979,7.2496 14.8562232,7.4888 14.7639485,7.7464 C14.7639485,7.7464 14.7270386,7.5624 14.6901288,7.268 C14.6716738,7.0472 14.6532189,6.7896 14.6901288,6.4952 C14.6901288,6.4032 14.7085837,6.3112 14.7270386,6.2192 C14.7270386,6.1824 14.7454936,6.164 14.7454936,6.1272 C14.8193133,5.7776 14.9300429,5.3912 15.1515021,5.0416 C15.4283262,4.6 15.8527897,4.1952 16.4802575,3.9192 C16.5540773,3.8824 16.6463519,3.8456 16.7386266,3.8088 C16.7386266,3.8088 17.1446352,3.68 17.6429185,3.6616 L17.7536481,3.6616 C17.8459227,3.6616 17.9566524,3.6616 18.048927,3.68 C18.1965665,3.6984 18.344206,3.7352 18.4918455,3.7904 C18.4918455,3.7904 18.1042918,3.8456 17.5690987,4.1216 C17.0523605,4.3792 16.4248927,4.8208 15.8527897,5.5752 M16.6648069,9.2184 C16.627897,9.2368 16.5909871,9.2368 16.5725322,9.2184 C16.5171674,9.1816 16.5909871,8.9424 16.8493562,8.648 C16.8309013,8.2432 16.904721,7.0288 18.3626609,6.716 C18.4918455,6.6976 18.62103,6.6792 18.7317597,6.6608 L18.8240343,6.6608 C18.9532189,6.6608 19.0639485,6.6792 19.1746781,6.6976 C19.9497854,6.8632 20.2266094,7.5808 20.3188841,7.9304 C20.5772532,8.0776 20.6879828,8.2248 20.651073,8.2432 C20.632618,8.28 20.5957082,8.28 20.5403433,8.28 C20.4849785,8.3168 20.3373391,8.3352 20.1527897,8.3536 C19.783691,8.3904 19.211588,8.4272 18.5841202,8.5928 C18.5472103,8.6112 18.4918455,8.6112 18.4549356,8.6296 C17.5321888,8.8872 16.8309013,9.292 16.6648069,9.2184 M19.0824034,7.6176 L19.0454936,7.6176 L19.0824034,7.6176 M34.0309013,18.5104 C33.4403433,19.1912 32.7944206,19.7432 32.1484979,20.2032 C31.8347639,20.4424 31.5025751,20.6448 31.1888412,20.8288 C30.4690987,21.252 29.7862661,21.5648 29.1772532,21.804 C27.811588,22.3192 26.8334764,22.448 26.8334764,22.448 C27.6454936,22.7792 28.6236052,22.6504 29.2879828,22.5032 C29.7309013,22.3928 30.0446352,22.2824 30.0446352,22.2824 C30.0630901,22.5584 30.0630901,22.8344 30.0446352,23.0736 C30.0261803,23.3496 29.9708155,23.6072 29.9154506,23.828 L29.9154506,23.8464 C29.8416309,24.1408 29.7309013,24.3984 29.6017167,24.6192 C29.5832618,24.6376 29.5832618,24.6744 29.5648069,24.6928 L29.6201717,24.656 C29.8416309,24.4904 30.0630901,24.3248 30.2845494,24.1408 C30.4506438,24.012 30.6167382,23.8648 30.7828326,23.7176 C31.0596567,23.4784 31.3180258,23.2208 31.5763948,22.9448 C31.5948498,22.9264 31.6133047,22.908 31.6133047,22.8896 C31.8716738,22.6136 32.093133,22.3192 32.3145923,22.0432 C32.5914163,21.6568 32.8497854,21.2888 33.0712446,20.9024 L33.0896996,20.884 C33.1450644,20.792 33.2004292,20.7 33.2373391,20.608 L33.255794,20.5896 C33.2742489,20.5528 33.2927039,20.5344 33.3111588,20.4976 C33.3849785,20.3688 33.4587983,20.24 33.5141631,20.0928 C33.532618,20.056 33.551073,20.0376 33.551073,20.0008 C33.5879828,19.9272 33.6064378,19.8536 33.6433476,19.7984 C33.6618026,19.7432 33.6987124,19.688 33.7171674,19.6328 C33.7356223,19.5776 33.7725322,19.5224 33.7909871,19.4672 C33.827897,19.3568 33.8832618,19.2648 33.9201717,19.1544 C33.9386266,19.1176 33.9570815,19.0808 33.9570815,19.0256 C33.9939914,18.952 34.0124464,18.86 34.0493562,18.7864 C34.0678112,18.7496 34.0678112,18.7128 34.0862661,18.676 L34.104721,18.6392 C34.1416309,18.5472 34.1785408,18.4368 34.1969957,18.3448 C34.104721,18.4184 34.0678112,18.4552 34.0309013,18.5104 M16.4064378,13.2296 C16.2218884,13.3216 16.0188841,13.4136 15.8158798,13.5424 C15.2622318,13.8552 14.6347639,14.2784 14.1180258,14.8304 C14.044206,14.904 13.9888412,14.9776 13.9150215,15.0328 C13.8042918,15.1616 13.7120172,15.2904 13.6197425,15.4192 C13.6012876,15.4376 13.6012876,15.456 13.5828326,15.456 C13.5643777,15.4744 13.5459227,15.4928 13.5459227,15.5112 L13.4351931,15.6768 C13.4167382,15.6952 13.4167382,15.7136 13.3982833,15.7504 C13.3613734,15.824 13.3060086,15.8976 13.2690987,15.9896 C13.2321888,16.0632 13.195279,16.1552 13.1583691,16.2288 C12.8815451,16.8728 12.7708155,17.6272 12.9553648,18.492 L12.9553648,18.4552 L12.9553648,18.3816 L12.9553648,18.2896 C12.9553648,18.2712 12.9553648,18.2344 12.9738197,18.1976 C12.9738197,18.1608 12.9922747,18.124 12.9922747,18.1056 L12.9922747,18.0872 C12.9922747,18.0504 13.0107296,18.0136 13.0107296,17.9768 L13.0107296,17.9584 C13.0107296,17.9216 13.0291845,17.8848 13.0476395,17.848 L13.0476395,17.8296 C13.0660944,17.7928 13.0660944,17.7376 13.0845494,17.7008 L13.0845494,17.664 C13.1030043,17.6272 13.1214592,17.572 13.1399142,17.5168 C13.1583691,17.4432 13.195279,17.3696 13.2321888,17.296 C13.2506438,17.2776 13.2506438,17.2408 13.2690987,17.2224 L13.2875536,17.204 C13.3244635,17.1488 13.3429185,17.0936 13.3798283,17.0384 C13.3982833,16.9832 13.4351931,16.9464 13.472103,16.8912 C13.4905579,16.8728 13.4905579,16.8544 13.5090129,16.8544 C13.5274678,16.8176 13.5643777,16.7808 13.5828326,16.744 C13.6012876,16.7256 13.6012876,16.7072 13.6197425,16.7072 C13.6566524,16.652 13.6935622,16.6152 13.7304721,16.5784 C13.7304721,16.5784 13.1583691,18.4552 13.6751073,19.8352 L13.6751073,19.8168 L13.6751073,19.78 L13.6751073,19.7248 L13.6751073,19.6512 L13.6751073,19.5592 L13.6751073,19.4488 L13.6751073,19.3384 L13.6751073,19.32 L13.6751073,19.1544 C13.6751073,19.0992 13.6751073,19.044 13.6935622,19.0072 L13.6935622,18.9888 C13.6935622,18.9336 13.7120172,18.8784 13.7120172,18.8232 C13.7120172,18.8048 13.7120172,18.7864 13.7304721,18.768 L13.7304721,18.7312 C13.748927,18.6944 13.748927,18.6392 13.767382,18.6024 C13.7858369,18.5472 13.8042918,18.4736 13.8227468,18.4184 C13.8227468,18.4 13.8412017,18.3816 13.8412017,18.3632 C13.8596567,18.308 13.8965665,18.2528 13.9334764,18.1976 C13.9334764,18.1976 13.9334764,18.6392 14.0257511,19.1728 C14.044206,19.2464 14.044206,19.3384 14.0626609,19.4304 C14.0811159,19.4856 14.0811159,19.5408 14.0995708,19.596 C14.0626609,19.0256 14.0995708,18.492 14.1918455,17.9768 C14.2103004,17.8296 14.2472103,17.7008 14.2841202,17.5536 C14.2841202,17.5352 14.2841202,17.5168 14.3025751,17.4984 L14.4133047,17.112 C14.4133047,17.0936 14.4317597,17.0568 14.4317597,17.0384 C14.4686695,16.9096 14.5055794,16.7992 14.5609442,16.6704 C14.5609442,16.652 14.5793991,16.6336 14.5793991,16.6152 C14.6716738,16.3576 14.7824034,16.1368 14.893133,15.8976 C14.893133,15.8792 14.911588,15.8608 14.911588,15.8424 C14.9484979,15.7504 15.0038627,15.6768 15.0407725,15.5848 C15.0592275,15.5664 15.0592275,15.548 15.0776824,15.5112 C15.0961373,15.4928 15.0961373,15.4744 15.1145923,15.456 C15.1699571,15.364 15.2253219,15.2536 15.2806867,15.1616 C15.2806867,15.1432 15.2991416,15.1248 15.2991416,15.1248 C15.3545064,15.0328 15.4283262,14.9224 15.483691,14.8304 L15.7051502,14.4992 L15.8712446,14.2784 C15.8896996,14.26 15.9081545,14.2232 15.9266094,14.2048 C16.055794,14.0392 16.1849785,13.8736 16.3141631,13.7448 C16.6832618,13.3216 16.9785408,13.064 17.0708155,12.972 C16.9969957,12.9904 16.923176,13.0272 16.8493562,13.064 C16.7201717,13.0824 16.5725322,13.1376 16.4064378,13.2296" id="Shape" fill-rule="nonzero"></path>
                                <path d="M26.4643777,7.9672 C26.4643777,7.9672 26.4459227,7.9304 26.4274678,7.8568 C26.3351931,7.5992 26.0030043,7.0104 24.9879828,7.2496 C23.9360515,7.4888 23.6776824,8.3904 23.6223176,8.6848 C23.6038627,8.74 23.6038627,8.7952 23.6038627,8.7952 L23.6407725,8.8136 C23.7699571,8.6848 24.0283262,8.6664 24.2682403,8.7768 C24.37897,8.832 24.4712446,8.9056 24.5450644,8.9976 C24.655794,9.1264 24.6927039,9.2736 24.6373391,9.384 C24.6188841,9.4024 24.6188841,9.4392 24.6004292,9.4576 C24.6004292,9.4576 24.6373391,9.476 24.7111588,9.476 C25.0248927,9.5312 25.8553648,9.6048 26.2429185,8.9608 C26.2613734,8.924 26.2798283,8.9056 26.2982833,8.8688 C26.2060086,8.832 26.1321888,8.7216 26.1137339,8.556 C26.095279,8.4824 26.095279,8.4088 26.1137339,8.3168 C26.1690987,8.0776 26.3167382,7.912 26.4643777,7.9672 M22.1459227,16.4312 C21.4815451,16.652 20.8909871,16.836 20.4296137,16.9648 L20.5034335,16.9648 C21.2969957,16.9648 22.5519313,16.928 24.0467811,16.652 C26.7596567,16.1368 30.2660944,14.8304 33.1819742,11.4816 L33.1819742,11.4632 C33.1635193,11.224 33.0712446,10.7824 32.7206009,10.4696 C32.6652361,10.4144 32.5914163,10.3592 32.4991416,10.3224 C32.4806867,10.3224 32.4806867,10.304 32.4622318,10.304 C32.3699571,10.2672 32.2961373,10.2304 32.2223176,10.1936 C32.1669528,10.1568 32.093133,10.1384 32.0562232,10.1016 L32.0562232,10.0832 C31.8901288,10.396 31.6871245,10.7088 31.4656652,11.0032 C31.3918455,11.1136 31.2995708,11.2056 31.2072961,11.316 C30.4137339,12.236 29.3248927,13.064 28.1253219,13.7816 C26.1321888,14.9408 23.8806867,15.8424 22.1459227,16.4312 M4.18927039,13.8184 C4.17081545,13.8552 4.13390558,13.8736 4.11545064,13.9104 L4.09699571,13.9472 C4.06008584,13.984 4.0416309,14.0392 4.02317597,14.076 L4.00472103,14.0944 C3.96781116,14.1496 3.94935622,14.2048 3.91244635,14.26 L3.89399142,14.2784 C3.89399142,14.2968 3.87553648,14.3152 3.87553648,14.3152 C3.85708155,14.352 3.83862661,14.3888 3.83862661,14.4256 L3.83862661,14.4624 L3.7832618,14.628 C3.74635193,14.7936 3.70944206,14.9408 3.69098712,15.0512 C3.69098712,15.088 3.67253219,15.1432 3.67253219,15.18 C3.65407725,15.2536 3.65407725,15.3272 3.65407725,15.3456 L3.65407725,15.364 L3.65407725,15.3456 L3.65407725,15.1984 C3.65407725,15.1064 3.63562232,14.996 3.63562232,14.904 L3.63562232,14.6648 L3.63562232,14.5912 L3.63562232,14.4808 L3.63562232,14.3152 L3.63562232,14.1864 L3.63562232,14.0944 L3.63562232,14.0576 L3.63562232,14.0024 C3.63562232,13.9472 3.65407725,13.8736 3.65407725,13.8184 L3.65407725,13.8 C3.65407725,13.7632 3.65407725,13.708 3.67253219,13.6712 L3.67253219,13.6528 C3.69098712,13.5608 3.69098712,13.4688 3.70944206,13.3768 L3.70944206,13.34 L3.70944206,13.2848 C3.727897,13.1376 3.76480687,12.9904 3.80171674,12.8432 L3.80171674,12.8248 C3.82017167,12.696 3.85708155,12.5856 3.89399142,12.4568 L3.89399142,12.4384 C3.91244635,12.3832 3.93090129,12.328 3.93090129,12.2912 C3.94935622,12.2176 3.96781116,12.144 3.98626609,12.052 L3.98626609,12.0336 C3.98626609,12.0152 4.00472103,11.96 4.02317597,11.9048 C4.02317597,11.8864 4.0416309,11.8496 4.0416309,11.8312 C4.06008584,11.7944 4.06008584,11.7392 4.07854077,11.7024 L4.09699571,11.6656 C4.07854077,11.6472 4.0416309,11.6472 4.00472103,11.6288 L3.98626609,11.6288 L3.94935622,11.6104 C3.76480687,11.5552 3.58025751,11.5 3.39570815,11.4816 L3.35879828,11.4816 C3.22961373,11.4632 3.11888412,11.4632 2.98969957,11.4632 C2.91587983,11.4632 2.84206009,11.4632 2.76824034,11.4816 C2.71287554,11.4816 2.63905579,11.5 2.58369099,11.5 L2.30686695,11.5552 C2.26995708,11.5552 2.25150215,11.5736 2.23304721,11.5736 C2.19613734,11.592 2.14077253,11.592 2.10386266,11.6104 C2.08540773,11.6104 2.06695279,11.6288 2.04849785,11.6288 C2.01158798,11.6472 1.99313305,11.6472 1.95622318,11.6656 C1.90085837,11.684 1.84549356,11.7208 1.79012876,11.7392 C1.77167382,11.7576 1.73476395,11.7576 1.71630901,11.776 C1.64248927,11.8128 1.56866953,11.8496 1.49484979,11.9048 C1.45793991,11.9232 1.43948498,11.9416 1.42103004,11.96 C1.38412017,11.9784 1.3472103,11.9968 1.32875536,12.0336 L1.29184549,12.052 C1.25493562,12.0704 1.21802575,12.1072 1.18111588,12.1256 C1.14420601,12.144 1.12575107,12.1808 1.0888412,12.1992 C1.05193133,12.236 1.01502146,12.2544 0.978111588,12.2912 L0.922746781,12.3464 C0.867381974,12.4016 0.812017167,12.4568 0.756652361,12.5304 C0.738197425,12.5672 0.701287554,12.5856 0.682832618,12.6224 C0.645922747,12.6776 0.59055794,12.7328 0.553648069,12.788 L0.535193133,12.8248 C0.516738197,12.8616 0.498283262,12.8984 0.479828326,12.9168 C0.461373391,12.9352 0.461373391,12.9536 0.442918455,12.9904 C0.369098712,13.1376 0.29527897,13.2848 0.239914163,13.432 C0.239914163,13.4504 0.221459227,13.4688 0.221459227,13.5056 L0.166094421,13.7264 C0.166094421,13.7632 0.147639485,13.7816 0.147639485,13.8184 C0.147639485,13.8368 0.166094421,13.8552 0.166094421,13.8736 C0.203004292,13.9288 0.221459227,14.0024 0.258369099,14.0576 L0.276824034,14.076 L0.29527897,14.0944 C0.332188841,14.1496 0.350643777,14.2048 0.387553648,14.2784 C0.479828326,14.444 0.59055794,14.6096 0.682832618,14.7384 C0.701287554,14.7568 0.719742489,14.7752 0.719742489,14.7936 L0.738197425,14.904 L0.756652361,14.9224 C0.830472103,15.0144 0.904291845,15.1064 0.959656652,15.18 C1.05193133,15.2904 1.14420601,15.3824 1.19957082,15.4376 L1.23648069,15.4744 L1.25493562,15.4928 L1.29184549,15.5296 C1.27339056,15.4928 1.27339056,15.4744 1.25493562,15.4376 C1.18111588,15.2168 1.12575107,14.9776 1.0888412,14.7568 L1.0888412,14.72 C1.07038627,14.5728 1.05193133,14.4256 1.05193133,14.2968 C1.07038627,14.352 1.0888412,14.4072 1.12575107,14.444 L1.23648069,14.6648 L1.25493562,14.6832 C1.40257511,14.9776 1.56866953,15.2168 1.71630901,15.4192 C1.90085837,15.6584 2.04849785,15.8056 2.14077253,15.8976 C2.15922747,15.916 2.1776824,15.9344 2.19613734,15.9344 L2.23304721,15.9712 C2.14077253,15.732 2.08540773,15.4928 2.04849785,15.2536 C2.03004292,15.18 2.03004292,15.088 2.01158798,15.0144 C1.99313305,14.904 1.99313305,14.812 1.99313305,14.72 C2.06695279,14.8856 2.1223176,15.0328 2.19613734,15.18 L2.19613734,15.1984 C2.45450644,15.6952 2.74978541,16.0632 2.93433476,16.2656 L2.9527897,16.284 C2.98969957,16.3208 3.00815451,16.3576 3.04506438,16.376 L3.10042918,16.4312 L3.13733906,16.468 L3.15579399,16.4864 L3.13733906,16.4496 C3.11888412,16.4128 3.11888412,16.376 3.10042918,16.3576 C3.06351931,16.2288 3.02660944,16.1184 3.00815451,15.9896 C2.98969957,15.916 2.97124464,15.824 2.9527897,15.7504 C2.93433476,15.6768 2.93433476,15.6032 2.91587983,15.5296 L2.91587983,15.4928 C2.91587983,15.456 2.91587983,15.4192 2.89742489,15.3824 L2.89742489,15.3456 C2.89742489,15.2536 2.87896996,15.1432 2.87896996,15.0512 C2.89742489,15.1064 2.93433476,15.18 2.9527897,15.2352 C2.97124464,15.272 2.98969957,15.3272 3.00815451,15.364 L3.00815451,15.3824 L3.02660944,15.4008 C3.04506438,15.456 3.08197425,15.4928 3.10042918,15.548 C3.15579399,15.64 3.19270386,15.7136 3.24806867,15.7872 C3.30343348,15.8792 3.37725322,15.9712 3.43261803,16.0448 C3.4695279,16.0816 3.50643777,16.1368 3.5248927,16.1736 C3.56180258,16.2288 3.59871245,16.2656 3.63562232,16.3208 C3.67253219,16.3576 3.70944206,16.3944 3.727897,16.4312 L3.74635193,16.4496 L3.82017167,16.5232 L3.87553648,16.5784 L3.94935622,16.652 L3.96781116,16.6704 L3.96781116,16.6152 L3.96781116,16.1368 L3.96781116,16.0816 C3.96781116,15.8976 3.98626609,15.732 3.98626609,15.5664 L3.98626609,15.4744 L3.98626609,15.4192 L3.98626609,15.3272 C3.98626609,15.1984 4.00472103,15.0696 4.00472103,14.9408 C4.00472103,14.8304 4.02317597,14.72 4.02317597,14.628 L4.02317597,14.5912 L4.02317597,14.5544 L4.02317597,14.5176 L4.02317597,14.444 L4.02317597,14.3704 L4.02317597,14.2416 L4.02317597,14.168 C4.02317597,14.1312 4.02317597,14.0944 4.0416309,14.076 L4.0416309,14.0208 L4.0416309,13.984 L4.0416309,13.8552 L4.18927039,13.8184 M27.3317597,18.6944 C27.5716738,18.5656 27.793133,18.4736 27.9592275,18.3816 C28.2914163,18.1976 28.4759657,18.0688 28.4575107,18.032 C28.4390558,17.9952 28.2360515,18.0504 27.8669528,18.1792 C27.6824034,18.2528 27.4609442,18.308 27.22103,18.4 C27.0918455,18.4552 26.9626609,18.4736 26.8150215,18.5288 C26.667382,18.5656 26.5197425,18.6208 26.3536481,18.6576 C26.0399142,18.7496 25.6708155,18.8232 25.2832618,18.9336 C25.0987124,18.9704 24.8957082,19.0072 24.6927039,19.0624 C24.4896996,19.0992 24.2682403,19.136 24.0467811,19.1728 C23.1609442,19.3016 22.2012876,19.3936 21.1862661,19.3384 C20.651073,19.32 19.9313305,19.1544 19.3961373,18.9336 L19.3776824,18.9336 C19.5437768,17.848 20.6141631,17.572 20.6141631,17.572 L19.7467811,17.572 C19.0824034,17.6088 18.7871245,18.216 18.6948498,18.4552 C18.6763948,18.492 18.6763948,18.5288 18.6579399,18.5656 C18.5841202,18.7864 18.5656652,19.044 18.5656652,19.32 C18.6025751,19.8168 18.7871245,20.332 19.2300429,20.7552 C19.5253219,21.0312 19.9866953,21.252 20.5772532,21.3992 C20.0420601,21.1416 19.5437768,20.608 19.3776824,19.6696 C19.9682403,19.8352 20.632618,19.9088 21.1309013,19.9272 C22.2012876,19.9824 23.216309,19.8904 24.1206009,19.7248 C24.3420601,19.6696 24.5635193,19.6328 24.7849785,19.5776 C24.9879828,19.5224 25.2094421,19.4672 25.3939914,19.412 C25.7815451,19.3016 26.1321888,19.1912 26.4643777,19.0624 C26.6304721,19.0072 26.7781116,18.952 26.9257511,18.8784 C27.0733906,18.8048 27.22103,18.768 27.3317597,18.6944" id="Shape" fill-rule="nonzero"></path>
                            </g>
                            <g id="Group" transform="translate(23.437768, 19.136000)" fill="#664F44" fill-rule="nonzero">
                                <path d="M8.52618026,2.0056 C9.07982833,1.9504 9.46738197,2.0792 9.74420601,2.3 C9.78111588,2.0424 9.76266094,1.748 9.70729614,1.4352 C9.65193133,1.0856 9.52274678,0.7912 9.39356223,0.552 C9.33819742,0.4232 9.07982833,0.0552 8.80300429,0.1104 C8.45236052,0.184 8.28626609,0.8648 8.43390558,1.6744 C8.47081545,1.7848 8.48927039,1.8952 8.52618026,2.0056 M2.10386266,3.6616 C2.73133047,3.4776 3.32188841,3.5696 3.70944206,3.6248 C3.89399142,3.6616 4.0416309,3.68 4.11545064,3.68 C4.17081545,3.68 4.20772532,3.6616 4.22618026,3.6432 C4.26309013,3.6064 4.13390558,3.4592 3.89399142,3.3304 C3.83862661,3.2936 3.7832618,3.2752 3.727897,3.2384 C3.67253219,3.22 3.59871245,3.1832 3.54334764,3.1648 C3.48798283,3.1464 3.43261803,3.128 3.35879828,3.1096 L3.34034335,3.1096 C3.28497854,3.0912 3.2111588,3.0728 3.15579399,3.0728 L3.11888412,3.0728 C3.06351931,3.0544 2.98969957,3.0544 2.91587983,3.036 L2.87896996,3.036 C2.80515021,3.036 2.73133047,3.0176 2.65751073,3.0176 L2.45450644,3.0176 C2.41759657,3.0176 2.3806867,3.0176 2.34377682,3.036 L2.28841202,3.036 C2.25150215,3.036 2.21459227,3.0544 2.1776824,3.0544 C2.15922747,3.0544 2.14077253,3.0544 2.1223176,3.0728 C2.06695279,3.0912 2.01158798,3.0912 1.95622318,3.1096 L1.93776824,3.1096 C1.90085837,3.128 1.8639485,3.128 1.80858369,3.1464 C1.77167382,3.1648 1.71630901,3.1648 1.67939914,3.1832 C1.64248927,3.2016 1.58712446,3.22 1.55021459,3.2384 L1.43948498,3.2936 C1.40257511,3.312 1.36566524,3.3304 1.31030043,3.3488 C1.27339056,3.3672 1.23648069,3.3856 1.21802575,3.404 C1.18111588,3.4224 1.14420601,3.4592 1.10729614,3.4776 C1.0888412,3.496 1.05193133,3.5144 1.03347639,3.5328 C0.996566524,3.5512 0.959656652,3.588 0.922746781,3.6064 C0.904291845,3.6248 0.88583691,3.6432 0.848927039,3.6616 C0.812017167,3.6984 0.775107296,3.7168 0.738197425,3.7536 C0.719742489,3.772 0.701287554,3.7904 0.682832618,3.7904 C0.645922747,3.8272 0.609012876,3.864 0.572103004,3.8824 L0.535193133,3.9192 C0.498283262,3.956 0.461373391,4.0112 0.424463519,4.048 C0.166094421,4.3424 0.0922746781,4.6 0.147639485,4.6184 C0.166094421,4.6368 0.203004292,4.6368 0.239914163,4.6184 C0.479828326,4.5264 1.07038627,3.9744 1.95622318,3.6984 C2.03004292,3.6984 2.06695279,3.68 2.10386266,3.6616 M9.70729614,3.956 C9.72575107,4.1032 9.79957082,4.232 9.89184549,4.2688 C10.039485,4.324 10.1686695,4.1584 10.2240343,3.9008 L10.2240343,3.8272 C10.2424893,3.6064 10.1686695,3.404 10.039485,3.3488 C9.91030043,3.2936 9.76266094,3.4592 9.70729614,3.7168 C9.70729614,3.8088 9.6888412,3.8824 9.70729614,3.956 M7.27124464,4.6552 C7.34506438,4.7472 7.43733906,4.8208 7.56652361,4.876 C7.8248927,5.0048 8.0832618,4.968 8.21244635,4.8392 C8.23090129,4.8208 8.24935622,4.8024 8.24935622,4.7656 C8.30472103,4.6552 8.24935622,4.508 8.15708155,4.3792 C8.0832618,4.3056 7.99098712,4.2136 7.88025751,4.1584 C7.62188841,4.048 7.36351931,4.0664 7.2527897,4.1952 C7.23433476,4.2136 7.21587983,4.232 7.19742489,4.2688 C7.12360515,4.3976 7.16051502,4.5264 7.27124464,4.6552 M17.1261803,11.9784 C16.8124464,12.3464 16.4618026,12.7144 16.0742489,13.0456 C14.3579399,14.5544 11.8296137,15.8792 10.0025751,16.3576 C8.61845494,16.7624 7.2527897,16.9648 6.03476395,16.9648 C5.33347639,16.9648 4.68755365,16.8912 4.15236052,16.7624 C3.56180258,16.6152 3.08197425,16.3944 2.80515021,16.1184 C2.36223176,15.7136 2.1776824,15.18 2.14077253,14.6832 C2.1223176,14.4256 2.15922747,14.168 2.23304721,13.9288 C2.25150215,13.892 2.25150215,13.8552 2.26995708,13.8184 C2.36223176,13.5608 2.65751073,12.972 3.32188841,12.9352 L4.15236052,12.9352 C5.97939914,12.9352 7.73261803,12.696 9.35665236,12.236 C11.7188841,11.5736 13.8227468,10.4512 15.6313305,8.8688 C15.7236052,8.7768 15.8158798,8.7032 15.9081545,8.6112 L16.7939914,6.8632 C13.8781116,10.212 10.3901288,11.5184 7.65879828,12.0152 C6.1639485,12.2912 4.90901288,12.328 4.11545064,12.328 L3.30343348,12.328 C3.10042918,12.3464 2.89742489,12.3832 2.73133047,12.4752 C2.3806867,12.6408 2.08540773,12.9352 1.88240343,13.2848 C1.64248927,13.7264 1.53175966,14.2784 1.58712446,14.8488 C1.64248927,15.3088 1.80858369,15.7688 2.10386266,16.1736 C2.1223176,16.192 2.1223176,16.2104 2.14077253,16.2288 C2.1776824,16.2656 2.21459227,16.3208 2.25150215,16.3576 L2.41759657,16.5232 C3.08197425,17.1488 4.37381974,17.5352 6.05321888,17.5352 C7.17896996,17.5352 8.48927039,17.3696 9.87339056,16.9832 C13.9519313,15.7136 15.760515,14.1312 16.5725322,13.064 L16.7386266,12.8432 C17.0154506,12.42 17.1261803,12.1256 17.1630901,11.9784 L17.1630901,11.96 C17.1815451,11.9232 17.1815451,11.9048 17.1815451,11.9048 L17.1261803,11.9784" id="Shape"></path>
                            </g>
                            <path d="M33.2927039,2.1712 C32.9236052,1.84 32.4991416,1.6192 32.0562232,1.4536 C31.9824034,1.4352 31.8901288,1.4168 31.816309,1.3984 C31.7793991,1.38 31.7240343,1.3616 31.6871245,1.3432 C31.2995708,1.2512 30.8935622,1.196 30.4875536,1.196 C28.4759657,1.1776 26.2982833,2.1712 25.0618026,2.8336 C24.9879828,2.8704 24.932618,2.9072 24.8587983,2.944 C24.7480687,2.9992 24.655794,3.0544 24.5450644,3.128 C24.360515,3.2384 24.1944206,3.3488 24.0098712,3.4592 C23.9914163,3.4776 23.9545064,3.496 23.9360515,3.5144 L23.5300429,3.1464 L23.3454936,2.9808 L23.1793991,2.8336 L23.1055794,2.76 L21.5922747,1.38 L21.4630901,1.2512 L21.3154506,1.104 L21.2969957,1.104 L20.927897,1.2328 L20.5034335,1.38 C20.2450644,1.288 19.9497854,1.2512 19.6175966,1.2512 C18.9532189,1.2512 18.1042918,1.4168 17.1815451,1.7848 C16.2587983,2.1528 15.2253219,2.6864 14.1549356,3.3856 C11.9957082,4.8024 9.67038627,6.8448 7.49270386,9.3472 C6.7360515,10.2304 6.03476395,11.1136 5.3888412,11.9968 C4.77982833,12.8432 4.20772532,13.708 3.727897,14.536 C2.73133047,16.2288 1.99313305,17.8296 1.58712446,19.2464 C1.31030043,20.1848 1.16266094,21.0312 1.16266094,21.7488 C1.16266094,22.264 1.23648069,22.7056 1.36566524,23.0736 C1.40257511,23.184 1.45793991,23.2944 1.51330472,23.3864 C1.62403433,23.5888 1.75321888,23.7728 1.9193133,23.92 L3.58025751,25.2816 L3.76480687,25.4288 L3.76480687,25.4104 C3.80171674,25.3552 3.83862661,25.3 3.89399142,25.2448 L3.91244635,25.2264 C3.93090129,25.208 3.94935622,25.1896 3.94935622,25.1712 C3.98626609,25.116 4.02317597,25.0608 4.06008584,25.024 C4.07854077,24.9872 4.11545064,24.9688 4.13390558,24.932 C4.15236052,24.8952 4.18927039,24.8768 4.20772532,24.84 L4.24463519,24.8032 C4.26309013,24.7664 4.3,24.748 4.31845494,24.7112 C4.35536481,24.6744 4.39227468,24.6192 4.42918455,24.5824 L4.50300429,24.5088 L4.52145923,24.4904 L4.65064378,24.3616 L4.72446352,24.288 C4.76137339,24.2512 4.8167382,24.2144 4.85364807,24.1592 C4.872103,24.1408 4.90901288,24.104 4.94592275,24.0856 C5.00128755,24.0488 5.03819742,24.012 5.09356223,23.9752 C5.1304721,23.9568 5.14892704,23.9384 5.18583691,23.9016 C5.24120172,23.8648 5.29656652,23.828 5.33347639,23.7912 C5.37038627,23.7728 5.3888412,23.7544 5.42575107,23.736 L5.46266094,23.7176 C5.49957082,23.6808 5.55493562,23.6624 5.59184549,23.6256 C5.61030043,23.6072 5.6472103,23.5888 5.66566524,23.5704 C5.70257511,23.552 5.73948498,23.5152 5.77639485,23.4968 L5.88712446,23.4416 L5.92403433,23.4232 C6.01630901,23.368 6.09012876,23.3312 6.18240343,23.2944 C6.2193133,23.276 6.23776824,23.276 6.27467811,23.2576 C6.31158798,23.2392 6.33004292,23.2208 6.36695279,23.2208 L6.40386266,23.2024 C6.4223176,23.2024 6.44077253,23.184 6.45922747,23.184 L6.56995708,23.1288 L6.60686695,23.1104 C6.64377682,23.092 6.69914163,23.0736 6.7360515,23.0552 C6.77296137,23.0368 6.82832618,23.0184 6.86523605,23 L7.03133047,22.9448 C7.04978541,22.9448 7.06824034,22.9264 7.10515021,22.9264 C7.12360515,22.9264 7.14206009,22.908 7.17896996,22.908 C7.23433476,22.8896 7.28969957,22.8712 7.34506438,22.8712 C7.40042918,22.8528 7.43733906,22.8528 7.49270386,22.8344 C7.52961373,22.8344 7.56652361,22.816 7.60343348,22.7976 C7.62188841,22.7976 7.64034335,22.7976 7.64034335,22.7792 C7.65879828,22.7792 7.67725322,22.7792 7.69570815,22.7608 L7.73261803,22.7608 C7.91716738,22.724 8.12017167,22.7056 8.36008584,22.7056 L8.39699571,22.7056 C8.63690987,22.7056 8.87682403,22.7056 9.15364807,22.724 C9.20901288,22.724 9.28283262,22.7424 9.33819742,22.7424 C9.35665236,22.724 9.35665236,22.6872 9.3751073,22.6688 L9.70729614,21.896 C10.3716738,20.424 11.1098712,19.1176 11.8849785,17.9584 C12.1433476,17.572 12.4201717,17.1856 12.6969957,16.8176 C13.8227468,15.3088 15.0038627,14.1128 16.0927039,13.1744 C16.332618,12.972 16.5725322,12.7696 16.8124464,12.5856 C17.1261803,12.328 17.4399142,12.1072 17.7351931,11.8864 C17.9751073,11.7208 18.1965665,11.5552 18.4180258,11.408 C18.7871245,11.1688 19.1193133,10.9664 19.4145923,10.8008 C19.506867,10.7456 19.5991416,10.6904 19.6729614,10.6536 C19.8021459,10.58 19.9128755,10.5248 20.0236052,10.4696 C19.9313305,10.4696 19.8206009,10.4696 19.7283262,10.488 C19.6360515,10.488 19.5437768,10.5064 19.4330472,10.5064 L19.3592275,10.5064 C19.2669528,10.5248 19.1562232,10.5248 19.0639485,10.5432 C18.8793991,10.58 18.6763948,10.6168 18.4918455,10.672 C18.4180258,10.6904 18.3626609,10.7088 18.2888412,10.7272 C18.7502146,10.4144 19.211588,10.1568 19.6729614,9.9728 C19.9682403,9.844 20.2635193,9.7336 20.5587983,9.6416 C20.9463519,9.5128 21.3339056,9.4208 21.6845494,9.3656 C21.9244635,9.3288 22.1459227,9.292 22.348927,9.2736 C22.5519313,9.2552 22.7549356,9.2368 22.92103,9.2368 C23.5300429,9.2184 23.8991416,9.2552 23.8991416,9.2552 C23.806867,9.1448 23.6776824,9.0528 23.5484979,8.9792 C23.3085837,8.832 23.0502146,8.7584 22.8287554,8.6848 C22.7364807,8.6664 22.6626609,8.648 22.5888412,8.6296 C22.5334764,8.6112 22.4781116,8.6112 22.4227468,8.6112 C22.5150215,8.5744 22.6257511,8.556 22.7180258,8.5376 C22.8287554,8.5192 22.92103,8.4824 23.0317597,8.464 C23.8806867,8.28 24.655794,8.2616 25.227897,8.2984 C25.9291845,8.3352 26.3536481,8.464 26.3536481,8.464 C26.2244635,8.28 26.076824,8.1328 25.8922747,8.0224 C25.7630901,7.9304 25.6339056,7.8568 25.504721,7.8016 C25.7446352,7.82 25.9660944,7.8568 26.1875536,7.8936 C26.7596567,8.004 27.239485,8.1328 27.6270386,8.2616 C27.7562232,8.2984 27.8669528,8.3536 27.9776824,8.3904 C28.0145923,8.4088 28.0330472,8.4088 28.0699571,8.4272 C28.4206009,8.5744 28.6236052,8.6848 28.6236052,8.6848 C28.5497854,8.5008 28.4021459,8.3168 28.2545064,8.1696 L28.1437768,8.0592 L28.1622318,8.0592 C28.1806867,8.0592 28.1991416,8.0592 28.2360515,8.0776 C28.2729614,8.0776 28.2914163,8.096 28.3467811,8.096 C28.4944206,8.1328 28.7343348,8.188 29.0111588,8.2984 C29.0296137,8.2984 29.0296137,8.3168 29.0480687,8.3168 C29.0849785,8.3352 29.1218884,8.3536 29.1587983,8.3536 C29.251073,8.3904 29.3618026,8.4272 29.4540773,8.4824 C29.5463519,8.5192 29.6386266,8.5744 29.7493562,8.6296 C29.804721,8.648 29.8600858,8.6848 29.8969957,8.7032 C30.0077253,8.7584 30.1184549,8.832 30.2291845,8.9056 C30.3399142,8.9792 30.4506438,9.0528 30.5613734,9.1448 L30.6167382,9.2 C30.6905579,9.2552 30.7643777,9.3288 30.8381974,9.4024 C30.9858369,9.5312 31.1150215,9.6784 31.244206,9.844 C31.3918455,10.028 31.52103,10.2488 31.6317597,10.488 C31.6317597,10.5064 31.6502146,10.5064 31.6502146,10.5248 C31.7055794,10.4512 31.7793991,10.3408 31.8901288,10.1752 C32.8128755,8.7952 35.5072961,4.3976 33.2927039,2.1712" id="Path" fill="#132134"></path>
                            <path d="M20.2450644,3.0176 L20.0974249,2.3 L20.3742489,1.4536 L20.5218884,1.3984 C20.2635193,1.3064 19.9682403,1.2696 19.6360515,1.2696 C18.9716738,1.2696 18.1227468,1.4352 17.2,1.8032 C16.2772532,2.1712 15.2437768,2.7048 14.1733906,3.404 C11.9957082,4.8024 9.67038627,6.8448 7.49270386,9.3472 C6.7360515,10.2304 6.03476395,11.1136 5.3888412,11.9968 C4.77982833,12.8432 4.20772532,13.708 3.727897,14.536 C2.73133047,16.2288 1.99313305,17.8296 1.58712446,19.2464 C1.31030043,20.1848 1.16266094,21.0312 1.16266094,21.7488 C1.16266094,22.264 1.23648069,22.7056 1.36566524,23.0736 C1.40257511,23.184 1.45793991,23.2944 1.51330472,23.3864 C1.62403433,23.5888 1.75321888,23.7728 1.9193133,23.92 L3.58025751,25.2816 L3.76480687,25.4288 L3.76480687,25.4104 C3.80171674,25.3552 3.83862661,25.3 3.89399142,25.2448 L3.91244635,25.2264 C3.93090129,25.208 3.94935622,25.1896 3.94935622,25.1712 C3.98626609,25.116 4.02317597,25.0608 4.06008584,25.024 C4.07854077,24.9872 4.11545064,24.9688 4.13390558,24.932 C4.15236052,24.8952 4.18927039,24.8768 4.20772532,24.84 L4.24463519,24.8032 C4.26309013,24.7664 4.3,24.748 4.31845494,24.7112 C4.35536481,24.6744 4.39227468,24.6192 4.42918455,24.5824 L4.50300429,24.5088 L4.52145923,24.4904 L4.65064378,24.3616 L4.72446352,24.288 C4.76137339,24.2512 4.8167382,24.2144 4.85364807,24.1592 C4.872103,24.1408 4.90901288,24.104 4.94592275,24.0856 C5.00128755,24.0488 5.03819742,24.012 5.09356223,23.9752 C5.1304721,23.9568 5.14892704,23.9384 5.18583691,23.9016 C5.24120172,23.8648 5.29656652,23.828 5.33347639,23.7912 C5.37038627,23.7728 5.3888412,23.7544 5.42575107,23.736 L5.46266094,23.7176 C5.70257511,22.7056 6.10858369,21.5832 6.66223176,20.3872 C7.34506438,18.9336 8.24935622,17.3696 9.3751073,15.8056 C10.0763948,14.812 10.8515021,13.8184 11.7004292,12.8432 C12.8077253,11.5736 13.9519313,10.4144 15.0776824,9.4024 C15.8527897,8.7216 16.6094421,8.096 17.3660944,7.544 L17.5875536,7.3784 C17.7905579,7.2312 17.9935622,7.1024 18.1965665,6.9552 C18.62103,6.6608 19.0639485,6.3848 19.4699571,6.1456 L19.2300429,5.9064 L19.193133,5.8696 L18.8793991,5.5752 L17.1261803,3.9192 L16.9785408,2.668 L16.9600858,2.6496 L17.9935622,2.208 L20.2450644,3.0176" id="Path" fill="#2F83C1"></path>
                            <path d="M20.7248927,3.2016 L20.7802575,3.22 L20.7248927,3.2016 Z" id="Path" fill="#4D9ED7"></path>
                            <path d="M21.3154506,1.104 L20.355794,1.4352 L20.7802575,3.2016 L17.9935622,2.1896 L16.9600858,2.6312 L16.9785408,2.6496 L20.5957082,5.888 L20.632618,5.8696 L20.6695279,5.8328 L20.9463519,5.612 C20.9832618,5.5936 21.0017167,5.5568 21.0386266,5.5384 C21.1678112,5.428 21.3154506,5.336 21.4446352,5.2256 L19.9128755,3.8456 L22.2381974,4.6552 C22.2935622,4.6184 22.367382,4.5632 22.4227468,4.5264 L22.0351931,2.9992 L23.1609442,4.0296 L23.1793991,4.0296 C23.2532189,3.9744 23.3270386,3.9192 23.4193133,3.8824 L23.4377682,3.864 L23.4746781,3.8456 C23.493133,3.8456 23.493133,3.8272 23.511588,3.8272 C23.5484979,3.8088 23.5854077,3.7904 23.6038627,3.7536 C23.6038627,3.7536 23.6223176,3.7536 23.6223176,3.7352 C23.7330472,3.6616 23.8437768,3.588 23.9545064,3.5328 L21.3154506,1.104" id="Path" fill="#FFD250"></path>
                            <g id="Group" transform="translate(5.351931, 1.104000)" fill="#4D9ED7" fill-rule="nonzero">
                                <path d="M15.0223176,0.4048 L15.0038627,0.3312 L15.0223176,0.4048 M15.0038627,0.3312 L15.1515021,0.276 C14.893133,0.184 14.5978541,0.1472 14.2656652,0.1472 C13.6012876,0.1472 12.7523605,0.3128 11.8296137,0.6808 C10.906867,1.0488 9.87339056,1.5824 8.80300429,2.2816 C6.64377682,3.6984 4.31845494,5.7408 2.14077253,8.2432 C1.38412017,9.1264 0.682832618,10.0096 0.0369098712,10.8928 L3.43261803,14.168 C4.13390558,13.1928 4.90901288,12.2176 5.73948498,11.2424 C6.86523605,9.9544 8.027897,8.7768 9.19055794,7.728 C10.316309,6.716 11.4420601,5.8512 12.5493562,5.1152 L11.755794,2.852 L11.6266094,1.564 L11.6081545,1.5456 L12.6416309,1.104 L14.8746781,1.932 L14.7270386,1.2144 L15.0038627,0.3312" id="Shape"></path>
                            </g>
                            <g id="Group" transform="translate(19.746781, 1.288000)" fill="#132134" fill-rule="nonzero">
                                <path d="M0.609012876,0.1472 L0.350643777,1.012 L0.498283262,1.7296 L1.03347639,1.932 L0.609012876,0.1472 Z M0.147639485,2.5576 L2.47296137,3.3672 L1.69785408,3.956 L0.147639485,2.5576 Z M2.26995708,1.7112 L2.65751073,3.2384 L3.41416309,2.7232 L2.26995708,1.7112 Z" id="Shape"></path>
                            </g>
                            <path d="M30.2291845,1.4352 L30.6167382,1.38 C30.9858369,1.3432 31.3364807,1.3432 31.6686695,1.3984 L31.816309,1.3984 C31.7793991,1.38 31.7240343,1.3616 31.6871245,1.3432 C31.2995708,1.2512 30.8935622,1.196 30.4875536,1.196 C28.4759657,1.1776 26.2982833,2.1712 25.0618026,2.8336 C24.9879828,2.8704 24.932618,2.9072 24.8587983,2.944 C24.7480687,2.9992 24.655794,3.0544 24.5450644,3.128 C24.360515,3.2384 24.1944206,3.3488 24.0098712,3.4592 C23.9914163,3.4776 23.9545064,3.496 23.9360515,3.5144 C23.8253219,3.588 23.7145923,3.6432 23.6038627,3.7168 C23.6038627,3.7168 23.5854077,3.7168 23.5854077,3.7352 C23.5484979,3.7536 23.511588,3.772 23.493133,3.8088 C23.4746781,3.8088 23.4746781,3.8272 23.4562232,3.8272 L23.4193133,3.8456 L23.4008584,3.864 C23.3270386,3.9192 23.2532189,3.956 23.1609442,4.0112 L23.1424893,4.0112 C23.1240343,4.0296 23.1055794,4.0296 23.0871245,4.048 L23.0686695,4.048 C23.0502146,4.0664 23.0317597,4.0664 23.0317597,4.0848 C22.9025751,4.1584 22.7918455,4.2504 22.6626609,4.324 C22.5703863,4.3792 22.4965665,4.4344 22.4042918,4.4896 L22.3858369,4.508 C22.3304721,4.5448 22.2566524,4.6 22.2012876,4.6368 C21.9982833,4.784 21.795279,4.9312 21.6107296,5.0784 C21.5922747,5.0968 21.5738197,5.1152 21.5553648,5.1152 C21.5369099,5.1336 21.5184549,5.1336 21.5,5.152 C21.4815451,5.1704 21.4630901,5.1704 21.4446352,5.1888 L21.4261803,5.2072 C21.2969957,5.3176 21.1493562,5.4096 21.0201717,5.52 C20.9832618,5.5384 20.9463519,5.5752 20.927897,5.5936 L20.651073,5.8144 L20.6141631,5.8512 L20.5772532,5.8696 C20.3188841,6.072 20.07897,6.2928 19.8206009,6.5136 C19.4145923,6.8632 19.0085837,7.2312 18.6025751,7.6176 C18.5472103,7.6728 18.4918455,7.7096 18.4549356,7.7648 C17.4030043,8.7584 16.4064378,9.8256 15.4652361,10.9112 C14.4686695,12.052 13.5274678,13.248 12.6416309,14.4256 C12.1618026,15.0328 11.755794,15.5848 11.4051502,16.0448 C10.7407725,16.9648 10.3716738,17.5168 10.3901288,17.5352 C10.3901288,17.5352 10.4639485,17.48 10.5562232,17.3328 C10.4639485,17.4616 10.3901288,17.5904 10.2978541,17.7192 C11.755794,15.732 13.4167382,13.6896 15.206867,11.7392 C16.2957082,10.5432 17.4399142,9.4024 18.639485,8.3168 C19.1562232,7.8384 19.6914163,7.3784 20.2450644,6.9368 C20.4111588,6.7896 20.5957082,6.6608 20.7618026,6.5136 C20.8540773,6.44 20.9463519,6.3848 21.0201717,6.3112 C21.0755365,6.2744 21.1124464,6.2376 21.1678112,6.2008 L21.4446352,5.98 C21.5369099,5.9064 21.6291845,5.8328 21.7214592,5.7776 C21.776824,5.7408 21.8137339,5.704 21.8690987,5.6672 C21.9798283,5.5752 22.1090129,5.5016 22.2197425,5.4096 C22.2935622,5.3544 22.367382,5.2992 22.4412017,5.2624 C22.6626609,5.0968 22.9025751,4.9496 23.1240343,4.8024 C23.1424893,4.784 23.1609442,4.784 23.1793991,4.7656 C23.216309,4.7472 23.2532189,4.7104 23.2901288,4.692 C23.3454936,4.6552 23.3824034,4.6368 23.4377682,4.6 C23.4562232,4.5816 23.4746781,4.5816 23.493133,4.5632 C23.5300429,4.5448 23.5484979,4.5264 23.5854077,4.508 C23.5854077,4.508 23.6038627,4.508 23.6038627,4.4896 L23.6223176,4.4896 C23.7145923,4.4344 23.8253219,4.3608 23.9175966,4.3056 C23.9360515,4.2872 23.9545064,4.2872 23.9729614,4.2688 C24.0098712,4.2504 24.0283262,4.232 24.0652361,4.2136 C24.1759657,4.14 24.2866953,4.0664 24.4158798,3.9928 C24.4527897,3.9744 24.4712446,3.956 24.5081545,3.9376 C24.5266094,3.9192 24.5450644,3.9192 24.5635193,3.9008 C24.6004292,3.8824 24.6188841,3.864 24.655794,3.8456 C24.7849785,3.772 24.9141631,3.68 25.0433476,3.6064 C25.1540773,3.5328 25.2832618,3.4776 25.3939914,3.404 C26.0583691,3.036 26.667382,2.7048 27.2579399,2.4472 C28.383691,1.8952 29.3618026,1.5824 30.2291845,1.4352" id="Path" fill="#FFFFFF"></path>
                        </g>
                    </g>
                </g>
            </g>
        </g>
    </g>
</svg>