<?xml version="1.0" encoding="UTF-8"?>
<svg width="32px" height="46px" viewBox="0 0 32 46" version="1.1" xmlns="http://www.w3.org/2000/svg" xmlns:xlink="http://www.w3.org/1999/xlink">
    <!-- Generator: Sketch 52.3 (67297) - http://www.bohemiancoding.com/sketch -->
    <title>google-sheets-seeklogo.com</title>
    <desc>Created with Sketch.</desc>
    <g id="Index" stroke="none" stroke-width="1" fill="none" fill-rule="evenodd">
        <g id="index" transform="translate(-830.000000, -1749.000000)">
            <g id="google-sheets-seeklogo.com" transform="translate(830.000000, 1749.000000)">
                <path d="M32,43.221746 C32,44.6809683 30.8474667,45.8645556 29.4263111,45.8645556 L2.57368889,45.8645556 C1.15253333,45.8645556 0,44.6809683 0,43.221746 L0,2.78920635 C0,1.32998413 1.15253333,0.146579365 2.57368889,0.146579365 L19.8391111,0.146579365 L32,12.9360397 L32,43.221746" id="Fill-1" fill="#23A566"></path>
                <path d="M21.1795556,12.6114841 L32,23.2259841 L31.9681778,12.9196111 L31.9500444,12.9190635 L22.3912889,12.9190635 C21.9557333,12.9190635 21.5456,12.8078968 21.1859556,12.6116667 L21.1795556,12.6114841" id="Fill-2" fill="#1C8F5A"></path>
                <path d="M32,12.9190635 L22.3912889,12.9190635 C20.9701333,12.9190635 19.8176,11.7356587 19.8176,10.2764365 L19.8176,0.135444444 L32,12.9190635" id="Fill-3" fill="#8ED1B1"></path>
                <path d="M7.6784,37.4080397 L24.3216,37.4080397 L24.3216,22.6091825 L7.6784,22.6091825 L7.6784,37.4080397 Z M17.0291556,27.3659841 L22.2625778,27.3659841 L22.2625778,24.7233571 L17.0291556,24.7233571 L17.0291556,27.3659841 Z M17.0291556,31.4181825 L22.2625778,31.4181825 L22.2625778,28.9515238 L17.0291556,28.9515238 L17.0291556,31.4181825 Z M17.0291556,35.2938651 L22.2625778,35.2938651 L22.2625778,33.0037222 L17.0291556,33.0037222 L17.0291556,35.2938651 Z M9.73742222,35.2938651 L14.9703111,35.2938651 L14.9703111,33.0037222 L9.73742222,33.0037222 L9.73742222,35.2938651 Z M9.73742222,31.4181825 L14.9703111,31.4181825 L14.9703111,28.9515238 L9.73742222,28.9515238 L9.73742222,31.4181825 Z M9.73742222,27.3659841 L14.9703111,27.3659841 L14.9703111,24.7233571 L9.73742222,24.7233571 L9.73742222,27.3659841 Z" id="Fill-4" fill="#FFFFFF"></path>
            </g>
        </g>
    </g>
</svg>